<?xml version="1.0" encoding="utf-8" standalone="no"?>
<!DOCTYPE svg PUBLIC "-//W3C//DTD SVG 1.1//EN"
  "http://www.w3.org/Graphics/SVG/1.1/DTD/svg11.dtd">
<svg xmlns:xlink="http://www.w3.org/1999/xlink" width="546.982197pt" height="400.7996pt" viewBox="0 0 546.982197 400.7996" xmlns="http://www.w3.org/2000/svg" version="1.1">
 <metadata>
  <rdf:RDF xmlns:dc="http://purl.org/dc/elements/1.1/" xmlns:cc="http://creativecommons.org/ns#" xmlns:rdf="http://www.w3.org/1999/02/22-rdf-syntax-ns#">
   <cc:Work>
    <dc:type rdf:resource="http://purl.org/dc/dcmitype/StillImage"/>
    <dc:date>2026-08-10T14:52:20.117102</dc:date>
    <dc:format>image/svg+xml</dc:format>
    <dc:creator>
     <cc:Agent>
      <dc:title>Matplotlib v3.10.9, https://matplotlib.org/</dc:title>
     </cc:Agent>
    </dc:creator>
   </cc:Work>
  </rdf:RDF>
 </metadata>
 <defs>
  <style type="text/css">*{stroke-linejoin: round; stroke-linecap: butt}</style>
 </defs>
 <g id="figure_1">
  <g id="patch_1">
   <path d="M 0 400.7996 
L 546.982197 400.7996 
L 546.982197 0 
L 0 0 
z
" style="fill: #ffffff"/>
  </g>
  <g id="axes_1">
   <g id="patch_2">
    <path d="M 42.308281 174.591252 
L 539.782197 174.591252 
L 539.782197 9.549554 
L 42.308281 9.549554 
z
" style="fill: #ffffff"/>
   </g>
   <g id="patch_3">
    <path d="M 123.909734 174.591252 
L 202.561736 174.591252 
L 202.561736 9.549554 
L 123.909734 9.549554 
z
" clip-path="url(#p6eb3ae9085)" style="fill: #f2f2f2; stroke: #f2f2f2; stroke-linejoin: miter"/>
   </g>
   <g id="patch_4">
    <path d="M 438.517744 174.591252 
L 517.169746 174.591252 
L 517.169746 9.549554 
L 438.517744 9.549554 
z
" clip-path="url(#p6eb3ae9085)" style="fill: #f2f2f2; stroke: #f2f2f2; stroke-linejoin: miter"/>
   </g>
   <g id="matplotlib.axis_1">
    <g id="xtick_1">
     <g id="line2d_1">
      <defs>
       <path id="m6da71f082b" d="M 0 0 
L 0 3.5 
" style="stroke: #000000; stroke-width: 0.8"/>
      </defs>
      <g>
       <use xlink:href="#m6da71f082b" x="64.920732" y="174.591252" style="stroke: #000000; stroke-width: 0.8"/>
      </g>
     </g>
    </g>
    <g id="xtick_2">
     <g id="line2d_2">
      <g>
       <use xlink:href="#m6da71f082b" x="104.246733" y="174.591252" style="stroke: #000000; stroke-width: 0.8"/>
      </g>
     </g>
    </g>
    <g id="xtick_3">
     <g id="line2d_3">
      <g>
       <use xlink:href="#m6da71f082b" x="143.572734" y="174.591252" style="stroke: #000000; stroke-width: 0.8"/>
      </g>
     </g>
    </g>
    <g id="xtick_4">
     <g id="line2d_4">
      <g>
       <use xlink:href="#m6da71f082b" x="182.898736" y="174.591252" style="stroke: #000000; stroke-width: 0.8"/>
      </g>
     </g>
    </g>
    <g id="xtick_5">
     <g id="line2d_5">
      <g>
       <use xlink:href="#m6da71f082b" x="222.224737" y="174.591252" style="stroke: #000000; stroke-width: 0.8"/>
      </g>
     </g>
    </g>
    <g id="xtick_6">
     <g id="line2d_6">
      <g>
       <use xlink:href="#m6da71f082b" x="261.550738" y="174.591252" style="stroke: #000000; stroke-width: 0.8"/>
      </g>
     </g>
    </g>
    <g id="xtick_7">
     <g id="line2d_7">
      <g>
       <use xlink:href="#m6da71f082b" x="300.87674" y="174.591252" style="stroke: #000000; stroke-width: 0.8"/>
      </g>
     </g>
    </g>
    <g id="xtick_8">
     <g id="line2d_8">
      <g>
       <use xlink:href="#m6da71f082b" x="340.202741" y="174.591252" style="stroke: #000000; stroke-width: 0.8"/>
      </g>
     </g>
    </g>
    <g id="xtick_9">
     <g id="line2d_9">
      <g>
       <use xlink:href="#m6da71f082b" x="379.528742" y="174.591252" style="stroke: #000000; stroke-width: 0.8"/>
      </g>
     </g>
    </g>
    <g id="xtick_10">
     <g id="line2d_10">
      <g>
       <use xlink:href="#m6da71f082b" x="418.854743" y="174.591252" style="stroke: #000000; stroke-width: 0.8"/>
      </g>
     </g>
    </g>
    <g id="xtick_11">
     <g id="line2d_11">
      <g>
       <use xlink:href="#m6da71f082b" x="458.180745" y="174.591252" style="stroke: #000000; stroke-width: 0.8"/>
      </g>
     </g>
    </g>
    <g id="xtick_12">
     <g id="line2d_12">
      <g>
       <use xlink:href="#m6da71f082b" x="497.506746" y="174.591252" style="stroke: #000000; stroke-width: 0.8"/>
      </g>
     </g>
    </g>
   </g>
   <g id="matplotlib.axis_2">
    <g id="ytick_1">
     <g id="line2d_13">
      <path d="M 42.308281 174.591252 
L 539.782197 174.591252 
" clip-path="url(#p6eb3ae9085)" style="fill: none; stroke: #d0d0d0; stroke-opacity: 0.8; stroke-width: 0.55; stroke-linecap: square"/>
     </g>
     <g id="line2d_14">
      <defs>
       <path id="mccbb4c13a9" d="M 0 0 
L -3.5 0 
" style="stroke: #000000; stroke-width: 0.8"/>
      </defs>
      <g>
       <use xlink:href="#mccbb4c13a9" x="42.308281" y="174.591252" style="stroke: #000000; stroke-width: 0.8"/>
      </g>
     </g>
     <g id="text_1">
      <!-- 0 -->
      <g transform="translate(30.218281 177.630627) scale(0.08 -0.08)">
       <defs>
        <path id="DejaVuSerif-30" d="M 2034 219 
Q 2513 219 2750 744 
Q 2988 1269 2988 2328 
Q 2988 3391 2750 3916 
Q 2513 4441 2034 4441 
Q 1556 4441 1318 3916 
Q 1081 3391 1081 2328 
Q 1081 1269 1318 744 
Q 1556 219 2034 219 
z
M 2034 -91 
Q 1275 -91 848 546 
Q 422 1184 422 2328 
Q 422 3475 848 4112 
Q 1275 4750 2034 4750 
Q 2797 4750 3222 4112 
Q 3647 3475 3647 2328 
Q 3647 1184 3222 546 
Q 2797 -91 2034 -91 
z
" transform="scale(0.015625)"/>
       </defs>
       <use xlink:href="#DejaVuSerif-30"/>
      </g>
     </g>
    </g>
    <g id="ytick_2">
     <g id="line2d_15">
      <path d="M 42.308281 143.154738 
L 539.782197 143.154738 
" clip-path="url(#p6eb3ae9085)" style="fill: none; stroke: #d0d0d0; stroke-opacity: 0.8; stroke-width: 0.55; stroke-linecap: square"/>
     </g>
     <g id="line2d_16">
      <g>
       <use xlink:href="#mccbb4c13a9" x="42.308281" y="143.154738" style="stroke: #000000; stroke-width: 0.8"/>
      </g>
     </g>
     <g id="text_2">
      <!-- 20 -->
      <g transform="translate(25.128281 146.194113) scale(0.08 -0.08)">
       <defs>
        <path id="DejaVuSerif-32" d="M 819 3553 
L 469 3553 
L 469 4384 
Q 803 4563 1142 4656 
Q 1481 4750 1806 4750 
Q 2534 4750 2956 4397 
Q 3378 4044 3378 3438 
Q 3378 2753 2422 1800 
Q 2347 1728 2309 1691 
L 1131 513 
L 3078 513 
L 3078 1088 
L 3444 1088 
L 3444 0 
L 434 0 
L 434 341 
L 1850 1753 
Q 2319 2222 2519 2614 
Q 2719 3006 2719 3438 
Q 2719 3909 2473 4175 
Q 2228 4441 1797 4441 
Q 1350 4441 1106 4219 
Q 863 3997 819 3553 
z
" transform="scale(0.015625)"/>
       </defs>
       <use xlink:href="#DejaVuSerif-32"/>
       <use xlink:href="#DejaVuSerif-30" transform="translate(63.623047 0)"/>
      </g>
     </g>
    </g>
    <g id="ytick_3">
     <g id="line2d_17">
      <path d="M 42.308281 111.718224 
L 539.782197 111.718224 
" clip-path="url(#p6eb3ae9085)" style="fill: none; stroke: #d0d0d0; stroke-opacity: 0.8; stroke-width: 0.55; stroke-linecap: square"/>
     </g>
     <g id="line2d_18">
      <g>
       <use xlink:href="#mccbb4c13a9" x="42.308281" y="111.718224" style="stroke: #000000; stroke-width: 0.8"/>
      </g>
     </g>
     <g id="text_3">
      <!-- 40 -->
      <g transform="translate(25.128281 114.757599) scale(0.08 -0.08)">
       <defs>
        <path id="DejaVuSerif-34" d="M 2234 1581 
L 2234 4063 
L 641 1581 
L 2234 1581 
z
M 3609 0 
L 1484 0 
L 1484 331 
L 2234 331 
L 2234 1247 
L 197 1247 
L 197 1588 
L 2241 4750 
L 2859 4750 
L 2859 1581 
L 3750 1581 
L 3750 1247 
L 2859 1247 
L 2859 331 
L 3609 331 
L 3609 0 
z
" transform="scale(0.015625)"/>
       </defs>
       <use xlink:href="#DejaVuSerif-34"/>
       <use xlink:href="#DejaVuSerif-30" transform="translate(63.623047 0)"/>
      </g>
     </g>
    </g>
    <g id="ytick_4">
     <g id="line2d_19">
      <path d="M 42.308281 80.28171 
L 539.782197 80.28171 
" clip-path="url(#p6eb3ae9085)" style="fill: none; stroke: #d0d0d0; stroke-opacity: 0.8; stroke-width: 0.55; stroke-linecap: square"/>
     </g>
     <g id="line2d_20">
      <g>
       <use xlink:href="#mccbb4c13a9" x="42.308281" y="80.28171" style="stroke: #000000; stroke-width: 0.8"/>
      </g>
     </g>
     <g id="text_4">
      <!-- 60 -->
      <g transform="translate(25.128281 83.321085) scale(0.08 -0.08)">
       <defs>
        <path id="DejaVuSerif-36" d="M 2094 219 
Q 2534 219 2771 542 
Q 3009 866 3009 1472 
Q 3009 2078 2771 2401 
Q 2534 2725 2094 2725 
Q 1647 2725 1412 2412 
Q 1178 2100 1178 1509 
Q 1178 888 1415 553 
Q 1653 219 2094 219 
z
M 1075 2569 
Q 1288 2803 1556 2918 
Q 1825 3034 2163 3034 
Q 2859 3034 3264 2615 
Q 3669 2197 3669 1472 
Q 3669 763 3233 336 
Q 2797 -91 2069 -91 
Q 1278 -91 853 498 
Q 428 1088 428 2181 
Q 428 3406 931 4078 
Q 1434 4750 2350 4750 
Q 2597 4750 2869 4703 
Q 3141 4656 3425 4563 
L 3425 3794 
L 3072 3794 
Q 3034 4109 2831 4275 
Q 2628 4441 2284 4441 
Q 1678 4441 1381 3981 
Q 1084 3522 1075 2569 
z
" transform="scale(0.015625)"/>
       </defs>
       <use xlink:href="#DejaVuSerif-36"/>
       <use xlink:href="#DejaVuSerif-30" transform="translate(63.623047 0)"/>
      </g>
     </g>
    </g>
    <g id="ytick_5">
     <g id="line2d_21">
      <path d="M 42.308281 48.845196 
L 539.782197 48.845196 
" clip-path="url(#p6eb3ae9085)" style="fill: none; stroke: #d0d0d0; stroke-opacity: 0.8; stroke-width: 0.55; stroke-linecap: square"/>
     </g>
     <g id="line2d_22">
      <g>
       <use xlink:href="#mccbb4c13a9" x="42.308281" y="48.845196" style="stroke: #000000; stroke-width: 0.8"/>
      </g>
     </g>
     <g id="text_5">
      <!-- 80 -->
      <g transform="translate(25.128281 51.884571) scale(0.08 -0.08)">
       <defs>
        <path id="DejaVuSerif-38" d="M 2981 1275 
Q 2981 1775 2732 2051 
Q 2484 2328 2034 2328 
Q 1584 2328 1336 2051 
Q 1088 1775 1088 1275 
Q 1088 772 1336 495 
Q 1584 219 2034 219 
Q 2484 219 2732 495 
Q 2981 772 2981 1275 
z
M 2853 3541 
Q 2853 3966 2637 4203 
Q 2422 4441 2034 4441 
Q 1650 4441 1433 4203 
Q 1216 3966 1216 3541 
Q 1216 3113 1433 2875 
Q 1650 2638 2034 2638 
Q 2422 2638 2637 2875 
Q 2853 3113 2853 3541 
z
M 2516 2484 
Q 3047 2413 3344 2092 
Q 3641 1772 3641 1275 
Q 3641 619 3225 264 
Q 2809 -91 2034 -91 
Q 1263 -91 845 264 
Q 428 619 428 1275 
Q 428 1772 725 2092 
Q 1022 2413 1556 2484 
Q 1084 2569 832 2842 
Q 581 3116 581 3541 
Q 581 4103 968 4426 
Q 1356 4750 2034 4750 
Q 2713 4750 3100 4426 
Q 3488 4103 3488 3541 
Q 3488 3116 3236 2842 
Q 2984 2569 2516 2484 
z
" transform="scale(0.015625)"/>
       </defs>
       <use xlink:href="#DejaVuSerif-38"/>
       <use xlink:href="#DejaVuSerif-30" transform="translate(63.623047 0)"/>
      </g>
     </g>
    </g>
    <g id="ytick_6">
     <g id="line2d_23">
      <path d="M 42.308281 17.408683 
L 539.782197 17.408683 
" clip-path="url(#p6eb3ae9085)" style="fill: none; stroke: #d0d0d0; stroke-opacity: 0.8; stroke-width: 0.55; stroke-linecap: square"/>
     </g>
     <g id="line2d_24">
      <g>
       <use xlink:href="#mccbb4c13a9" x="42.308281" y="17.408683" style="stroke: #000000; stroke-width: 0.8"/>
      </g>
     </g>
     <g id="text_6">
      <!-- 100 -->
      <g transform="translate(20.038281 20.448058) scale(0.08 -0.08)">
       <defs>
        <path id="DejaVuSerif-31" d="M 909 0 
L 909 331 
L 1722 331 
L 1722 4213 
L 781 3603 
L 781 4013 
L 1919 4750 
L 2350 4750 
L 2350 331 
L 3163 331 
L 3163 0 
L 909 0 
z
" transform="scale(0.015625)"/>
       </defs>
       <use xlink:href="#DejaVuSerif-31"/>
       <use xlink:href="#DejaVuSerif-30" transform="translate(63.623047 0)"/>
       <use xlink:href="#DejaVuSerif-30" transform="translate(127.246094 0)"/>
      </g>
     </g>
    </g>
    <g id="text_7">
     <!-- Activation sparsity (%) -->
     <g transform="translate(14.038594 143.939231) rotate(-90) scale(0.09 -0.09)">
      <defs>
       <path id="DejaVuSerif-41" d="M 1281 1691 
L 2994 1691 
L 2138 3909 
L 1281 1691 
z
M -38 0 
L -38 331 
L 372 331 
L 2034 4666 
L 2559 4666 
L 4225 331 
L 4684 331 
L 4684 0 
L 2988 0 
L 2988 331 
L 3506 331 
L 3116 1356 
L 1153 1356 
L 763 331 
L 1275 331 
L 1275 0 
L -38 0 
z
" transform="scale(0.015625)"/>
       <path id="DejaVuSerif-63" d="M 3291 997 
Q 3169 466 2822 187 
Q 2475 -91 1925 -91 
Q 1200 -91 759 389 
Q 319 869 319 1663 
Q 319 2459 759 2936 
Q 1200 3413 1925 3413 
Q 2241 3413 2553 3339 
Q 2866 3266 3181 3116 
L 3181 2266 
L 2847 2266 
Q 2781 2703 2561 2903 
Q 2341 3103 1931 3103 
Q 1466 3103 1228 2742 
Q 991 2381 991 1663 
Q 991 944 1227 581 
Q 1463 219 1931 219 
Q 2303 219 2525 412 
Q 2747 606 2828 997 
L 3291 997 
z
" transform="scale(0.015625)"/>
       <path id="DejaVuSerif-74" d="M 691 2988 
L 184 2988 
L 184 3322 
L 691 3322 
L 691 4353 
L 1269 4353 
L 1269 3322 
L 2350 3322 
L 2350 2988 
L 1269 2988 
L 1269 878 
Q 1269 456 1350 337 
Q 1431 219 1650 219 
Q 1875 219 1978 351 
Q 2081 484 2088 781 
L 2522 781 
Q 2497 328 2275 118 
Q 2053 -91 1600 -91 
Q 1103 -91 897 129 
Q 691 350 691 878 
L 691 2988 
z
" transform="scale(0.015625)"/>
       <path id="DejaVuSerif-69" d="M 622 4353 
Q 622 4497 726 4603 
Q 831 4709 978 4709 
Q 1122 4709 1226 4603 
Q 1331 4497 1331 4353 
Q 1331 4206 1228 4103 
Q 1125 4000 978 4000 
Q 831 4000 726 4103 
Q 622 4206 622 4353 
z
M 1356 331 
L 1900 331 
L 1900 0 
L 231 0 
L 231 331 
L 781 331 
L 781 2988 
L 231 2988 
L 231 3322 
L 1356 3322 
L 1356 331 
z
" transform="scale(0.015625)"/>
       <path id="DejaVuSerif-76" d="M 1581 0 
L 359 2988 
L -19 2988 
L -19 3322 
L 1509 3322 
L 1509 2988 
L 978 2988 
L 1913 703 
L 2847 2988 
L 2350 2988 
L 2350 3322 
L 3597 3322 
L 3597 2988 
L 3225 2988 
L 2003 0 
L 1581 0 
z
" transform="scale(0.015625)"/>
       <path id="DejaVuSerif-61" d="M 2547 1044 
L 2547 1747 
L 1806 1747 
Q 1378 1747 1168 1562 
Q 959 1378 959 997 
Q 959 650 1171 447 
Q 1384 244 1747 244 
Q 2106 244 2326 466 
Q 2547 688 2547 1044 
z
M 3122 2075 
L 3122 331 
L 3634 331 
L 3634 0 
L 2547 0 
L 2547 359 
Q 2356 128 2106 18 
Q 1856 -91 1522 -91 
Q 969 -91 644 203 
Q 319 497 319 997 
Q 319 1513 691 1797 
Q 1063 2081 1741 2081 
L 2547 2081 
L 2547 2309 
Q 2547 2688 2317 2895 
Q 2088 3103 1672 3103 
Q 1328 3103 1125 2947 
Q 922 2791 872 2484 
L 575 2484 
L 575 3156 
Q 875 3284 1158 3348 
Q 1441 3413 1709 3413 
Q 2400 3413 2761 3070 
Q 3122 2728 3122 2075 
z
" transform="scale(0.015625)"/>
       <path id="DejaVuSerif-6f" d="M 1925 219 
Q 2388 219 2623 584 
Q 2859 950 2859 1663 
Q 2859 2375 2623 2739 
Q 2388 3103 1925 3103 
Q 1463 3103 1227 2739 
Q 991 2375 991 1663 
Q 991 950 1228 584 
Q 1466 219 1925 219 
z
M 1925 -91 
Q 1200 -91 759 389 
Q 319 869 319 1663 
Q 319 2456 758 2934 
Q 1197 3413 1925 3413 
Q 2653 3413 3092 2934 
Q 3531 2456 3531 1663 
Q 3531 869 3092 389 
Q 2653 -91 1925 -91 
z
" transform="scale(0.015625)"/>
       <path id="DejaVuSerif-6e" d="M 263 0 
L 263 331 
L 781 331 
L 781 2988 
L 231 2988 
L 231 3322 
L 1356 3322 
L 1356 2731 
Q 1516 3069 1770 3241 
Q 2025 3413 2363 3413 
Q 2913 3413 3172 3097 
Q 3431 2781 3431 2113 
L 3431 331 
L 3944 331 
L 3944 0 
L 2356 0 
L 2356 331 
L 2853 331 
L 2853 1931 
Q 2853 2541 2703 2767 
Q 2553 2994 2175 2994 
Q 1775 2994 1565 2701 
Q 1356 2409 1356 1850 
L 1356 331 
L 1856 331 
L 1856 0 
L 263 0 
z
" transform="scale(0.015625)"/>
       <path id="DejaVuSerif-20" transform="scale(0.015625)"/>
       <path id="DejaVuSerif-73" d="M 359 184 
L 359 959 
L 691 959 
Q 703 588 923 403 
Q 1144 219 1575 219 
Q 1963 219 2166 364 
Q 2369 509 2369 788 
Q 2369 1006 2220 1140 
Q 2072 1275 1594 1428 
L 1178 1569 
Q 750 1706 558 1912 
Q 366 2119 366 2438 
Q 366 2894 700 3153 
Q 1034 3413 1625 3413 
Q 1888 3413 2178 3344 
Q 2469 3275 2778 3144 
L 2778 2419 
L 2447 2419 
Q 2434 2741 2221 2922 
Q 2009 3103 1644 3103 
Q 1281 3103 1095 2975 
Q 909 2847 909 2591 
Q 909 2381 1050 2254 
Q 1191 2128 1613 1997 
L 2069 1856 
Q 2541 1709 2748 1489 
Q 2956 1269 2956 922 
Q 2956 450 2595 179 
Q 2234 -91 1600 -91 
Q 1278 -91 972 -22 
Q 666 47 359 184 
z
" transform="scale(0.015625)"/>
       <path id="DejaVuSerif-70" d="M 1313 1825 
L 1313 1497 
Q 1313 897 1542 583 
Q 1772 269 2209 269 
Q 2650 269 2876 622 
Q 3103 975 3103 1663 
Q 3103 2353 2876 2703 
Q 2650 3053 2209 3053 
Q 1772 3053 1542 2737 
Q 1313 2422 1313 1825 
z
M 738 2988 
L 184 2988 
L 184 3322 
L 1313 3322 
L 1313 2803 
Q 1481 3116 1742 3264 
Q 2003 3413 2388 3413 
Q 3000 3413 3387 2928 
Q 3775 2444 3775 1663 
Q 3775 881 3387 395 
Q 3000 -91 2388 -91 
Q 2003 -91 1742 57 
Q 1481 206 1313 519 
L 1313 -997 
L 1856 -997 
L 1856 -1331 
L 184 -1331 
L 184 -997 
L 738 -997 
L 738 2988 
z
" transform="scale(0.015625)"/>
       <path id="DejaVuSerif-72" d="M 3059 3328 
L 3059 2497 
L 2728 2497 
Q 2713 2744 2591 2866 
Q 2469 2988 2234 2988 
Q 1809 2988 1582 2694 
Q 1356 2400 1356 1850 
L 1356 331 
L 2022 331 
L 2022 0 
L 263 0 
L 263 331 
L 781 331 
L 781 2994 
L 231 2994 
L 231 3322 
L 1356 3322 
L 1356 2731 
Q 1525 3078 1790 3245 
Q 2056 3413 2438 3413 
Q 2578 3413 2733 3391 
Q 2888 3369 3059 3328 
z
" transform="scale(0.015625)"/>
       <path id="DejaVuSerif-79" d="M 1381 -609 
L 1600 -56 
L 359 2988 
L -19 2988 
L -19 3322 
L 1509 3322 
L 1509 2988 
L 978 2988 
L 1913 703 
L 2847 2988 
L 2350 2988 
L 2350 3322 
L 3597 3322 
L 3597 2988 
L 3225 2988 
L 1703 -750 
Q 1547 -1138 1356 -1280 
Q 1166 -1422 819 -1422 
Q 672 -1422 517 -1397 
Q 363 -1372 206 -1325 
L 206 -691 
L 500 -691 
Q 519 -903 608 -995 
Q 697 -1088 884 -1088 
Q 1056 -1088 1161 -992 
Q 1266 -897 1381 -609 
z
" transform="scale(0.015625)"/>
       <path id="DejaVuSerif-28" d="M 2041 -997 
Q 1281 -656 893 83 
Q 506 822 506 1931 
Q 506 3044 893 3783 
Q 1281 4522 2041 4863 
L 2041 4556 
Q 1559 4225 1350 3623 
Q 1141 3022 1141 1931 
Q 1141 844 1350 242 
Q 1559 -359 2041 -691 
L 2041 -997 
z
" transform="scale(0.015625)"/>
       <path id="DejaVuSerif-25" d="M 1434 4459 
Q 1159 4459 1004 4200 
Q 850 3941 850 3475 
Q 850 3016 1008 2753 
Q 1166 2491 1434 2491 
Q 1700 2491 1854 2752 
Q 2009 3013 2009 3475 
Q 2009 3938 1854 4198 
Q 1700 4459 1434 4459 
z
M 4653 2169 
Q 4381 2169 4226 1906 
Q 4072 1644 4072 1178 
Q 4072 719 4228 458 
Q 4384 197 4653 197 
Q 4922 197 5075 458 
Q 5228 719 5228 1178 
Q 5228 1641 5073 1905 
Q 4919 2169 4653 2169 
z
M 4653 2450 
Q 5147 2450 5437 2106 
Q 5728 1763 5728 1178 
Q 5728 594 5436 251 
Q 5144 -91 4653 -91 
Q 4153 -91 3862 251 
Q 3572 594 3572 1178 
Q 3572 1766 3864 2108 
Q 4156 2450 4653 2450 
z
M 4263 4750 
L 4738 4750 
L 1819 -91 
L 1344 -91 
L 4263 4750 
z
M 1428 4750 
Q 1922 4750 2215 4408 
Q 2509 4066 2509 3481 
Q 2509 2891 2217 2550 
Q 1925 2209 1428 2209 
Q 931 2209 642 2551 
Q 353 2894 353 3481 
Q 353 4063 643 4406 
Q 934 4750 1428 4750 
z
" transform="scale(0.015625)"/>
       <path id="DejaVuSerif-29" d="M 453 -997 
L 453 -691 
Q 934 -359 1145 242 
Q 1356 844 1356 1931 
Q 1356 3022 1145 3623 
Q 934 4225 453 4556 
L 453 4863 
Q 1216 4522 1603 3783 
Q 1991 3044 1991 1931 
Q 1991 822 1603 83 
Q 1216 -656 453 -997 
z
" transform="scale(0.015625)"/>
      </defs>
      <use xlink:href="#DejaVuSerif-41"/>
      <use xlink:href="#DejaVuSerif-63" transform="translate(72.216797 0)"/>
      <use xlink:href="#DejaVuSerif-74" transform="translate(128.222656 0)"/>
      <use xlink:href="#DejaVuSerif-69" transform="translate(168.408203 0)"/>
      <use xlink:href="#DejaVuSerif-76" transform="translate(200.390625 0)"/>
      <use xlink:href="#DejaVuSerif-61" transform="translate(256.884766 0)"/>
      <use xlink:href="#DejaVuSerif-74" transform="translate(316.503906 0)"/>
      <use xlink:href="#DejaVuSerif-69" transform="translate(356.689453 0)"/>
      <use xlink:href="#DejaVuSerif-6f" transform="translate(388.671875 0)"/>
      <use xlink:href="#DejaVuSerif-6e" transform="translate(448.876953 0)"/>
      <use xlink:href="#DejaVuSerif-20" transform="translate(513.28125 0)"/>
      <use xlink:href="#DejaVuSerif-73" transform="translate(545.068359 0)"/>
      <use xlink:href="#DejaVuSerif-70" transform="translate(596.386719 0)"/>
      <use xlink:href="#DejaVuSerif-61" transform="translate(660.400391 0)"/>
      <use xlink:href="#DejaVuSerif-72" transform="translate(720.019531 0)"/>
      <use xlink:href="#DejaVuSerif-73" transform="translate(767.822266 0)"/>
      <use xlink:href="#DejaVuSerif-69" transform="translate(819.140625 0)"/>
      <use xlink:href="#DejaVuSerif-74" transform="translate(851.123047 0)"/>
      <use xlink:href="#DejaVuSerif-79" transform="translate(891.308594 0)"/>
      <use xlink:href="#DejaVuSerif-20" transform="translate(947.802734 0)"/>
      <use xlink:href="#DejaVuSerif-28" transform="translate(979.589844 0)"/>
      <use xlink:href="#DejaVuSerif-25" transform="translate(1018.603516 0)"/>
      <use xlink:href="#DejaVuSerif-29" transform="translate(1113.623047 0)"/>
     </g>
    </g>
   </g>
   <g id="line2d_25">
    <path d="M 123.909734 174.591252 
L 123.909734 9.549554 
" clip-path="url(#p6eb3ae9085)" style="fill: none; stroke-dasharray: 2.405,1.04; stroke-dashoffset: 0; stroke: #777777; stroke-width: 0.65"/>
   </g>
   <g id="line2d_26">
    <path d="M 202.561736 174.591252 
L 202.561736 9.549554 
" clip-path="url(#p6eb3ae9085)" style="fill: none; stroke-dasharray: 2.405,1.04; stroke-dashoffset: 0; stroke: #777777; stroke-width: 0.65"/>
   </g>
   <g id="line2d_27">
    <path d="M 438.517744 174.591252 
L 438.517744 9.549554 
" clip-path="url(#p6eb3ae9085)" style="fill: none; stroke-dasharray: 2.405,1.04; stroke-dashoffset: 0; stroke: #777777; stroke-width: 0.65"/>
   </g>
   <g id="patch_5">
    <path d="M 42.308281 174.591252 
L 42.308281 9.549554 
" style="fill: none; stroke: #000000; stroke-width: 0.7; stroke-linejoin: miter; stroke-linecap: square"/>
   </g>
   <g id="patch_6">
    <path d="M 539.782197 174.591252 
L 539.782197 9.549554 
" style="fill: none; stroke: #000000; stroke-width: 0.7; stroke-linejoin: miter; stroke-linecap: square"/>
   </g>
   <g id="patch_7">
    <path d="M 42.308281 174.591252 
L 539.782197 174.591252 
" style="fill: none; stroke: #000000; stroke-width: 0.7; stroke-linejoin: miter; stroke-linecap: square"/>
   </g>
   <g id="patch_8">
    <path d="M 42.308281 9.549554 
L 539.782197 9.549554 
" style="fill: none; stroke: #000000; stroke-width: 0.7; stroke-linejoin: miter; stroke-linecap: square"/>
   </g>
   <g id="LineCollection_1">
    <path d="M 64.920732 174.462046 
L 64.920732 173.180068 
" clip-path="url(#p6eb3ae9085)" style="fill: none; stroke: #0072b2; stroke-width: 0.8"/>
    <path d="M 104.246733 187.292247 
L 104.246733 113.603771 
" clip-path="url(#p6eb3ae9085)" style="fill: none; stroke: #0072b2; stroke-width: 0.8"/>
    <path d="M 143.572734 101.915585 
L 143.572734 99.379079 
" clip-path="url(#p6eb3ae9085)" style="fill: none; stroke: #0072b2; stroke-width: 0.8"/>
    <path d="M 182.898736 109.586905 
L 182.898736 100.71956 
" clip-path="url(#p6eb3ae9085)" style="fill: none; stroke: #0072b2; stroke-width: 0.8"/>
    <path d="M 222.224737 99.54225 
L 222.224737 99.35276 
" clip-path="url(#p6eb3ae9085)" style="fill: none; stroke: #0072b2; stroke-width: 0.8"/>
    <path d="M 261.550738 95.157802 
L 261.550738 92.315274 
" clip-path="url(#p6eb3ae9085)" style="fill: none; stroke: #0072b2; stroke-width: 0.8"/>
    <path d="M 300.87674 92.594817 
L 300.87674 84.273676 
" clip-path="url(#p6eb3ae9085)" style="fill: none; stroke: #0072b2; stroke-width: 0.8"/>
    <path d="M 340.202741 95.892442 
L 340.202741 88.782784 
" clip-path="url(#p6eb3ae9085)" style="fill: none; stroke: #0072b2; stroke-width: 0.8"/>
    <path d="M 379.528742 97.990167 
L 379.528742 88.759869 
" clip-path="url(#p6eb3ae9085)" style="fill: none; stroke: #0072b2; stroke-width: 0.8"/>
    <path d="M 418.854743 99.812081 
L 418.854743 89.201384 
" clip-path="url(#p6eb3ae9085)" style="fill: none; stroke: #0072b2; stroke-width: 0.8"/>
    <path d="M 458.180745 96.332872 
L 458.180745 93.917096 
" clip-path="url(#p6eb3ae9085)" style="fill: none; stroke: #0072b2; stroke-width: 0.8"/>
    <path d="M 497.506746 95.100326 
L 497.506746 87.625837 
" clip-path="url(#p6eb3ae9085)" style="fill: none; stroke: #0072b2; stroke-width: 0.8"/>
   </g>
   <g id="line2d_28">
    <defs>
     <path id="m71558ec4a1" d="M 2.2 0 
L -2.2 -0 
" style="stroke: #0072b2; stroke-width: 0.8"/>
    </defs>
    <g clip-path="url(#p6eb3ae9085)">
     <use xlink:href="#m71558ec4a1" x="64.920732" y="174.462046" style="fill: #0072b2; stroke: #0072b2; stroke-width: 0.8"/>
     <use xlink:href="#m71558ec4a1" x="104.246733" y="187.292247" style="fill: #0072b2; stroke: #0072b2; stroke-width: 0.8"/>
     <use xlink:href="#m71558ec4a1" x="143.572734" y="101.915585" style="fill: #0072b2; stroke: #0072b2; stroke-width: 0.8"/>
     <use xlink:href="#m71558ec4a1" x="182.898736" y="109.586905" style="fill: #0072b2; stroke: #0072b2; stroke-width: 0.8"/>
     <use xlink:href="#m71558ec4a1" x="222.224737" y="99.54225" style="fill: #0072b2; stroke: #0072b2; stroke-width: 0.8"/>
     <use xlink:href="#m71558ec4a1" x="261.550738" y="95.157802" style="fill: #0072b2; stroke: #0072b2; stroke-width: 0.8"/>
     <use xlink:href="#m71558ec4a1" x="300.87674" y="92.594817" style="fill: #0072b2; stroke: #0072b2; stroke-width: 0.8"/>
     <use xlink:href="#m71558ec4a1" x="340.202741" y="95.892442" style="fill: #0072b2; stroke: #0072b2; stroke-width: 0.8"/>
     <use xlink:href="#m71558ec4a1" x="379.528742" y="97.990167" style="fill: #0072b2; stroke: #0072b2; stroke-width: 0.8"/>
     <use xlink:href="#m71558ec4a1" x="418.854743" y="99.812081" style="fill: #0072b2; stroke: #0072b2; stroke-width: 0.8"/>
     <use xlink:href="#m71558ec4a1" x="458.180745" y="96.332872" style="fill: #0072b2; stroke: #0072b2; stroke-width: 0.8"/>
     <use xlink:href="#m71558ec4a1" x="497.506746" y="95.100326" style="fill: #0072b2; stroke: #0072b2; stroke-width: 0.8"/>
    </g>
   </g>
   <g id="line2d_29">
    <g clip-path="url(#p6eb3ae9085)">
     <use xlink:href="#m71558ec4a1" x="64.920732" y="173.180068" style="fill: #0072b2; stroke: #0072b2; stroke-width: 0.8"/>
     <use xlink:href="#m71558ec4a1" x="104.246733" y="113.603771" style="fill: #0072b2; stroke: #0072b2; stroke-width: 0.8"/>
     <use xlink:href="#m71558ec4a1" x="143.572734" y="99.379079" style="fill: #0072b2; stroke: #0072b2; stroke-width: 0.8"/>
     <use xlink:href="#m71558ec4a1" x="182.898736" y="100.71956" style="fill: #0072b2; stroke: #0072b2; stroke-width: 0.8"/>
     <use xlink:href="#m71558ec4a1" x="222.224737" y="99.35276" style="fill: #0072b2; stroke: #0072b2; stroke-width: 0.8"/>
     <use xlink:href="#m71558ec4a1" x="261.550738" y="92.315274" style="fill: #0072b2; stroke: #0072b2; stroke-width: 0.8"/>
     <use xlink:href="#m71558ec4a1" x="300.87674" y="84.273676" style="fill: #0072b2; stroke: #0072b2; stroke-width: 0.8"/>
     <use xlink:href="#m71558ec4a1" x="340.202741" y="88.782784" style="fill: #0072b2; stroke: #0072b2; stroke-width: 0.8"/>
     <use xlink:href="#m71558ec4a1" x="379.528742" y="88.759869" style="fill: #0072b2; stroke: #0072b2; stroke-width: 0.8"/>
     <use xlink:href="#m71558ec4a1" x="418.854743" y="89.201384" style="fill: #0072b2; stroke: #0072b2; stroke-width: 0.8"/>
     <use xlink:href="#m71558ec4a1" x="458.180745" y="93.917096" style="fill: #0072b2; stroke: #0072b2; stroke-width: 0.8"/>
     <use xlink:href="#m71558ec4a1" x="497.506746" y="87.625837" style="fill: #0072b2; stroke: #0072b2; stroke-width: 0.8"/>
    </g>
   </g>
   <g id="LineCollection_2">
    <path d="M 64.920732 146.228279 
L 64.920732 130.073907 
" clip-path="url(#p6eb3ae9085)" style="fill: none; stroke: #d55e00; stroke-width: 0.8"/>
    <path d="M 104.246733 142.966653 
L 104.246733 135.106456 
" clip-path="url(#p6eb3ae9085)" style="fill: none; stroke: #d55e00; stroke-width: 0.8"/>
    <path d="M 143.572734 21.518759 
L 143.572734 19.826922 
" clip-path="url(#p6eb3ae9085)" style="fill: none; stroke: #d55e00; stroke-width: 0.8"/>
    <path d="M 182.898736 23.815213 
L 182.898736 21.669609 
" clip-path="url(#p6eb3ae9085)" style="fill: none; stroke: #d55e00; stroke-width: 0.8"/>
    <path d="M 222.224737 23.159694 
L 222.224737 22.178425 
" clip-path="url(#p6eb3ae9085)" style="fill: none; stroke: #d55e00; stroke-width: 0.8"/>
    <path d="M 261.550738 22.171314 
L 261.550738 21.76264 
" clip-path="url(#p6eb3ae9085)" style="fill: none; stroke: #d55e00; stroke-width: 0.8"/>
    <path d="M 300.87674 20.209186 
L 300.87674 19.596106 
" clip-path="url(#p6eb3ae9085)" style="fill: none; stroke: #d55e00; stroke-width: 0.8"/>
    <path d="M 340.202741 23.897776 
L 340.202741 19.459842 
" clip-path="url(#p6eb3ae9085)" style="fill: none; stroke: #d55e00; stroke-width: 0.8"/>
    <path d="M 379.528742 23.201522 
L 379.528742 20.847699 
" clip-path="url(#p6eb3ae9085)" style="fill: none; stroke: #d55e00; stroke-width: 0.8"/>
    <path d="M 418.854743 24.691813 
L 418.854743 21.851372 
" clip-path="url(#p6eb3ae9085)" style="fill: none; stroke: #d55e00; stroke-width: 0.8"/>
    <path d="M 458.180745 34.756611 
L 458.180745 33.331065 
" clip-path="url(#p6eb3ae9085)" style="fill: none; stroke: #d55e00; stroke-width: 0.8"/>
    <path d="M 497.506746 37.359172 
L 497.506746 35.580206 
" clip-path="url(#p6eb3ae9085)" style="fill: none; stroke: #d55e00; stroke-width: 0.8"/>
   </g>
   <g id="line2d_30">
    <defs>
     <path id="mf86419a5f3" d="M 2.2 0 
L -2.2 -0 
" style="stroke: #d55e00; stroke-width: 0.8"/>
    </defs>
    <g clip-path="url(#p6eb3ae9085)">
     <use xlink:href="#mf86419a5f3" x="64.920732" y="146.228279" style="fill: #d55e00; stroke: #d55e00; stroke-width: 0.8"/>
     <use xlink:href="#mf86419a5f3" x="104.246733" y="142.966653" style="fill: #d55e00; stroke: #d55e00; stroke-width: 0.8"/>
     <use xlink:href="#mf86419a5f3" x="143.572734" y="21.518759" style="fill: #d55e00; stroke: #d55e00; stroke-width: 0.8"/>
     <use xlink:href="#mf86419a5f3" x="182.898736" y="23.815213" style="fill: #d55e00; stroke: #d55e00; stroke-width: 0.8"/>
     <use xlink:href="#mf86419a5f3" x="222.224737" y="23.159694" style="fill: #d55e00; stroke: #d55e00; stroke-width: 0.8"/>
     <use xlink:href="#mf86419a5f3" x="261.550738" y="22.171314" style="fill: #d55e00; stroke: #d55e00; stroke-width: 0.8"/>
     <use xlink:href="#mf86419a5f3" x="300.87674" y="20.209186" style="fill: #d55e00; stroke: #d55e00; stroke-width: 0.8"/>
     <use xlink:href="#mf86419a5f3" x="340.202741" y="23.897776" style="fill: #d55e00; stroke: #d55e00; stroke-width: 0.8"/>
     <use xlink:href="#mf86419a5f3" x="379.528742" y="23.201522" style="fill: #d55e00; stroke: #d55e00; stroke-width: 0.8"/>
     <use xlink:href="#mf86419a5f3" x="418.854743" y="24.691813" style="fill: #d55e00; stroke: #d55e00; stroke-width: 0.8"/>
     <use xlink:href="#mf86419a5f3" x="458.180745" y="34.756611" style="fill: #d55e00; stroke: #d55e00; stroke-width: 0.8"/>
     <use xlink:href="#mf86419a5f3" x="497.506746" y="37.359172" style="fill: #d55e00; stroke: #d55e00; stroke-width: 0.8"/>
    </g>
   </g>
   <g id="line2d_31">
    <g clip-path="url(#p6eb3ae9085)">
     <use xlink:href="#mf86419a5f3" x="64.920732" y="130.073907" style="fill: #d55e00; stroke: #d55e00; stroke-width: 0.8"/>
     <use xlink:href="#mf86419a5f3" x="104.246733" y="135.106456" style="fill: #d55e00; stroke: #d55e00; stroke-width: 0.8"/>
     <use xlink:href="#mf86419a5f3" x="143.572734" y="19.826922" style="fill: #d55e00; stroke: #d55e00; stroke-width: 0.8"/>
     <use xlink:href="#mf86419a5f3" x="182.898736" y="21.669609" style="fill: #d55e00; stroke: #d55e00; stroke-width: 0.8"/>
     <use xlink:href="#mf86419a5f3" x="222.224737" y="22.178425" style="fill: #d55e00; stroke: #d55e00; stroke-width: 0.8"/>
     <use xlink:href="#mf86419a5f3" x="261.550738" y="21.76264" style="fill: #d55e00; stroke: #d55e00; stroke-width: 0.8"/>
     <use xlink:href="#mf86419a5f3" x="300.87674" y="19.596106" style="fill: #d55e00; stroke: #d55e00; stroke-width: 0.8"/>
     <use xlink:href="#mf86419a5f3" x="340.202741" y="19.459842" style="fill: #d55e00; stroke: #d55e00; stroke-width: 0.8"/>
     <use xlink:href="#mf86419a5f3" x="379.528742" y="20.847699" style="fill: #d55e00; stroke: #d55e00; stroke-width: 0.8"/>
     <use xlink:href="#mf86419a5f3" x="418.854743" y="21.851372" style="fill: #d55e00; stroke: #d55e00; stroke-width: 0.8"/>
     <use xlink:href="#mf86419a5f3" x="458.180745" y="33.331065" style="fill: #d55e00; stroke: #d55e00; stroke-width: 0.8"/>
     <use xlink:href="#mf86419a5f3" x="497.506746" y="35.580206" style="fill: #d55e00; stroke: #d55e00; stroke-width: 0.8"/>
    </g>
   </g>
   <g id="text_8">
    <!-- (a) CIFAR-10 -->
    <g transform="translate(47.28302 25.910728) scale(0.085 -0.085)">
     <defs>
      <path id="DejaVuSerif-Bold-28" d="M 2694 -997 
Q 1641 -606 1122 122 
Q 603 850 603 1931 
Q 603 3013 1115 3731 
Q 1628 4450 2694 4863 
L 2694 4488 
Q 2200 4188 1983 3598 
Q 1766 3009 1766 1931 
Q 1766 856 1983 267 
Q 2200 -322 2694 -622 
L 2694 -997 
z
" transform="scale(0.015625)"/>
      <path id="DejaVuSerif-Bold-61" d="M 3525 2041 
L 3525 378 
L 4000 378 
L 4000 0 
L 2419 0 
L 2419 422 
Q 2200 159 1931 34 
Q 1663 -91 1319 -91 
Q 809 -91 536 182 
Q 263 456 263 966 
Q 263 1525 655 1803 
Q 1047 2081 1838 2081 
L 2419 2081 
L 2419 2278 
Q 2419 2681 2228 2873 
Q 2038 3066 1638 3066 
Q 1306 3066 1126 2930 
Q 947 2794 872 2484 
L 519 2484 
L 519 3200 
Q 816 3306 1134 3359 
Q 1453 3413 1806 3413 
Q 2697 3413 3111 3081 
Q 3525 2750 3525 2041 
z
M 2419 1044 
L 2419 1709 
L 2003 1709 
Q 1694 1709 1528 1540 
Q 1363 1372 1363 1056 
Q 1363 741 1483 584 
Q 1603 428 1850 428 
Q 2106 428 2262 597 
Q 2419 766 2419 1044 
z
" transform="scale(0.015625)"/>
      <path id="DejaVuSerif-Bold-29" d="M 325 -997 
L 325 -622 
Q 819 -322 1036 267 
Q 1253 856 1253 1931 
Q 1253 3009 1036 3598 
Q 819 4188 325 4488 
L 325 4863 
Q 1391 4450 1905 3731 
Q 2419 3013 2419 1931 
Q 2419 850 1898 122 
Q 1378 -606 325 -997 
z
" transform="scale(0.015625)"/>
      <path id="DejaVuSerif-Bold-20" transform="scale(0.015625)"/>
      <path id="DejaVuSerif-Bold-43" d="M 4769 1331 
Q 4584 609 4106 259 
Q 3628 -91 2822 -91 
Q 1641 -91 955 561 
Q 269 1213 269 2328 
Q 269 3447 955 4098 
Q 1641 4750 2822 4750 
Q 3238 4750 3688 4650 
Q 4138 4550 4641 4347 
L 4641 3200 
L 4244 3200 
Q 4122 3788 3800 4080 
Q 3478 4372 2950 4372 
Q 2269 4372 1937 3870 
Q 1606 3369 1606 2328 
Q 1606 1288 1937 788 
Q 2269 288 2956 288 
Q 3422 288 3717 547 
Q 4013 806 4147 1331 
L 4769 1331 
z
" transform="scale(0.015625)"/>
      <path id="DejaVuSerif-Bold-49" d="M 300 0 
L 300 378 
L 897 378 
L 897 4288 
L 300 4288 
L 300 4666 
L 2700 4666 
L 2700 4288 
L 2100 4288 
L 2100 378 
L 2700 378 
L 2700 0 
L 300 0 
z
" transform="scale(0.015625)"/>
      <path id="DejaVuSerif-Bold-46" d="M 300 0 
L 300 378 
L 897 378 
L 897 4288 
L 300 4288 
L 300 4666 
L 4459 4666 
L 4459 3566 
L 4031 3566 
L 4031 4238 
L 2106 4238 
L 2106 2741 
L 3291 2741 
L 3291 3334 
L 3719 3334 
L 3719 1722 
L 3291 1722 
L 3291 2316 
L 2106 2316 
L 2106 378 
L 2841 378 
L 2841 0 
L 300 0 
z
" transform="scale(0.015625)"/>
      <path id="DejaVuSerif-Bold-41" d="M -50 0 
L -50 378 
L 331 378 
L 2088 4666 
L 2834 4666 
L 4594 378 
L 5038 378 
L 5038 0 
L 2853 0 
L 2853 378 
L 3309 378 
L 2925 1331 
L 1172 1331 
L 781 378 
L 1338 378 
L 1338 0 
L -50 0 
z
M 1325 1709 
L 2772 1709 
L 2053 3494 
L 1325 1709 
z
" transform="scale(0.015625)"/>
      <path id="DejaVuSerif-Bold-52" d="M 3397 2278 
Q 3675 2238 3865 2094 
Q 4056 1950 4197 1678 
L 4878 378 
L 5356 378 
L 5356 0 
L 3822 0 
L 3078 1409 
Q 2863 1847 2711 1967 
Q 2559 2088 2291 2088 
L 2100 2088 
L 2100 378 
L 2700 378 
L 2700 0 
L 300 0 
L 300 378 
L 897 378 
L 897 4288 
L 300 4288 
L 300 4666 
L 2963 4666 
Q 3775 4666 4217 4339 
Q 4659 4013 4659 3413 
Q 4659 2925 4345 2642 
Q 4031 2359 3397 2278 
z
M 2100 2463 
L 2509 2463 
Q 2947 2463 3183 2700 
Q 3419 2938 3419 3378 
Q 3419 3819 3183 4053 
Q 2947 4288 2509 4288 
L 2100 4288 
L 2100 2463 
z
" transform="scale(0.015625)"/>
      <path id="DejaVuSerif-Bold-2d" d="M 347 2138 
L 2309 2138 
L 2309 1294 
L 347 1294 
L 347 2138 
z
" transform="scale(0.015625)"/>
      <path id="DejaVuSerif-Bold-31" d="M 878 0 
L 878 378 
L 1753 378 
L 1753 4153 
L 781 3578 
L 781 4044 
L 1953 4750 
L 2938 4750 
L 2938 378 
L 3816 378 
L 3816 0 
L 878 0 
z
" transform="scale(0.015625)"/>
      <path id="DejaVuSerif-Bold-30" d="M 2228 275 
Q 2603 275 2742 615 
Q 2881 956 2881 2328 
Q 2881 3691 2742 4037 
Q 2603 4384 2228 4384 
Q 1853 4384 1714 4043 
Q 1575 3703 1575 2328 
Q 1575 956 1714 615 
Q 1853 275 2228 275 
z
M 2228 -91 
Q 1294 -91 797 532 
Q 300 1156 300 2328 
Q 300 3500 797 4125 
Q 1294 4750 2228 4750 
Q 3159 4750 3656 4125 
Q 4153 3500 4153 2328 
Q 4153 1156 3656 532 
Q 3159 -91 2228 -91 
z
" transform="scale(0.015625)"/>
     </defs>
     <use xlink:href="#DejaVuSerif-Bold-28"/>
     <use xlink:href="#DejaVuSerif-Bold-61" transform="translate(47.314453 0)"/>
     <use xlink:href="#DejaVuSerif-Bold-29" transform="translate(112.109375 0)"/>
     <use xlink:href="#DejaVuSerif-Bold-20" transform="translate(159.423828 0)"/>
     <use xlink:href="#DejaVuSerif-Bold-43" transform="translate(194.238281 0)"/>
     <use xlink:href="#DejaVuSerif-Bold-49" transform="translate(273.828125 0)"/>
     <use xlink:href="#DejaVuSerif-Bold-46" transform="translate(320.605469 0)"/>
     <use xlink:href="#DejaVuSerif-Bold-41" transform="translate(385.726562 0)"/>
     <use xlink:href="#DejaVuSerif-Bold-52" transform="translate(463.314453 0)"/>
     <use xlink:href="#DejaVuSerif-Bold-2d" transform="translate(546.419922 0)"/>
     <use xlink:href="#DejaVuSerif-Bold-31" transform="translate(587.923828 0)"/>
     <use xlink:href="#DejaVuSerif-Bold-30" transform="translate(657.503906 0)"/>
    </g>
   </g>
   <g id="text_9">
    <!-- Stage 1 -->
    <g style="fill: #444444" transform="translate(70.461084 12.643062) scale(0.073 -0.073)">
     <defs>
      <path id="DejaVuSerif-53" d="M 594 225 
L 594 1288 
L 953 1284 
Q 969 753 1261 498 
Q 1553 244 2150 244 
Q 2706 244 2998 464 
Q 3291 684 3291 1106 
Q 3291 1444 3114 1625 
Q 2938 1806 2369 1978 
L 1753 2163 
Q 1084 2366 811 2669 
Q 538 2972 538 3500 
Q 538 4094 959 4422 
Q 1381 4750 2144 4750 
Q 2469 4750 2856 4679 
Q 3244 4609 3681 4475 
L 3681 3481 
L 3328 3481 
Q 3275 3975 2998 4195 
Q 2722 4416 2156 4416 
Q 1663 4416 1405 4214 
Q 1147 4013 1147 3628 
Q 1147 3294 1340 3103 
Q 1534 2913 2163 2725 
L 2741 2553 
Q 3375 2363 3645 2067 
Q 3916 1772 3916 1275 
Q 3916 597 3481 253 
Q 3047 -91 2188 -91 
Q 1803 -91 1404 -12 
Q 1006 66 594 225 
z
" transform="scale(0.015625)"/>
      <path id="DejaVuSerif-67" d="M 3359 2988 
L 3359 72 
Q 3359 -644 2965 -1033 
Q 2572 -1422 1844 -1422 
Q 1516 -1422 1216 -1362 
Q 916 -1303 641 -1184 
L 641 -488 
L 941 -488 
Q 997 -813 1206 -963 
Q 1416 -1113 1806 -1113 
Q 2313 -1113 2548 -827 
Q 2784 -541 2784 72 
L 2784 519 
Q 2616 206 2355 57 
Q 2094 -91 1709 -91 
Q 1097 -91 708 395 
Q 319 881 319 1663 
Q 319 2444 706 2928 
Q 1094 3413 1709 3413 
Q 2094 3413 2355 3264 
Q 2616 3116 2784 2803 
L 2784 3322 
L 3909 3322 
L 3909 2988 
L 3359 2988 
z
M 2784 1825 
Q 2784 2422 2554 2737 
Q 2325 3053 1888 3053 
Q 1444 3053 1217 2703 
Q 991 2353 991 1663 
Q 991 975 1217 622 
Q 1444 269 1888 269 
Q 2325 269 2554 583 
Q 2784 897 2784 1497 
L 2784 1825 
z
" transform="scale(0.015625)"/>
      <path id="DejaVuSerif-65" d="M 3469 1600 
L 991 1600 
L 991 1575 
Q 991 903 1244 561 
Q 1497 219 1991 219 
Q 2369 219 2611 417 
Q 2853 616 2950 1006 
L 3413 1006 
Q 3275 459 2904 184 
Q 2534 -91 1931 -91 
Q 1203 -91 761 389 
Q 319 869 319 1663 
Q 319 2450 753 2931 
Q 1188 3413 1894 3413 
Q 2647 3413 3050 2948 
Q 3453 2484 3469 1600 
z
M 2791 1931 
Q 2772 2513 2545 2808 
Q 2319 3103 1894 3103 
Q 1497 3103 1269 2806 
Q 1041 2509 991 1931 
L 2791 1931 
z
" transform="scale(0.015625)"/>
     </defs>
     <use xlink:href="#DejaVuSerif-53"/>
     <use xlink:href="#DejaVuSerif-74" transform="translate(68.505859 0)"/>
     <use xlink:href="#DejaVuSerif-61" transform="translate(108.691406 0)"/>
     <use xlink:href="#DejaVuSerif-67" transform="translate(168.310547 0)"/>
     <use xlink:href="#DejaVuSerif-65" transform="translate(232.324219 0)"/>
     <use xlink:href="#DejaVuSerif-20" transform="translate(291.503906 0)"/>
     <use xlink:href="#DejaVuSerif-31" transform="translate(323.291016 0)"/>
    </g>
   </g>
   <g id="text_10">
    <!-- Stage 2 -->
    <g style="fill: #444444" transform="translate(149.113087 12.643062) scale(0.073 -0.073)">
     <use xlink:href="#DejaVuSerif-53"/>
     <use xlink:href="#DejaVuSerif-74" transform="translate(68.505859 0)"/>
     <use xlink:href="#DejaVuSerif-61" transform="translate(108.691406 0)"/>
     <use xlink:href="#DejaVuSerif-67" transform="translate(168.310547 0)"/>
     <use xlink:href="#DejaVuSerif-65" transform="translate(232.324219 0)"/>
     <use xlink:href="#DejaVuSerif-20" transform="translate(291.503906 0)"/>
     <use xlink:href="#DejaVuSerif-32" transform="translate(323.291016 0)"/>
    </g>
   </g>
   <g id="text_11">
    <!-- Stage 3 -->
    <g style="fill: #444444" transform="translate(306.417092 12.643062) scale(0.073 -0.073)">
     <defs>
      <path id="DejaVuSerif-33" d="M 622 4469 
Q 988 4606 1323 4678 
Q 1659 4750 1953 4750 
Q 2638 4750 3022 4454 
Q 3406 4159 3406 3634 
Q 3406 3213 3140 2930 
Q 2875 2647 2388 2547 
Q 2963 2466 3280 2130 
Q 3597 1794 3597 1259 
Q 3597 606 3158 257 
Q 2719 -91 1894 -91 
Q 1528 -91 1179 -12 
Q 831 66 488 225 
L 488 1131 
L 838 1131 
Q 869 681 1141 450 
Q 1413 219 1906 219 
Q 2384 219 2661 495 
Q 2938 772 2938 1253 
Q 2938 1803 2653 2086 
Q 2369 2369 1819 2369 
L 1522 2369 
L 1522 2688 
L 1678 2688 
Q 2225 2688 2498 2914 
Q 2772 3141 2772 3597 
Q 2772 4006 2547 4223 
Q 2322 4441 1900 4441 
Q 1478 4441 1245 4241 
Q 1013 4041 972 3647 
L 622 3647 
L 622 4469 
z
" transform="scale(0.015625)"/>
     </defs>
     <use xlink:href="#DejaVuSerif-53"/>
     <use xlink:href="#DejaVuSerif-74" transform="translate(68.505859 0)"/>
     <use xlink:href="#DejaVuSerif-61" transform="translate(108.691406 0)"/>
     <use xlink:href="#DejaVuSerif-67" transform="translate(168.310547 0)"/>
     <use xlink:href="#DejaVuSerif-65" transform="translate(232.324219 0)"/>
     <use xlink:href="#DejaVuSerif-20" transform="translate(291.503906 0)"/>
     <use xlink:href="#DejaVuSerif-33" transform="translate(323.291016 0)"/>
    </g>
   </g>
   <g id="text_12">
    <!-- Stage 4 -->
    <g style="fill: #444444" transform="translate(463.721097 12.643062) scale(0.073 -0.073)">
     <use xlink:href="#DejaVuSerif-53"/>
     <use xlink:href="#DejaVuSerif-74" transform="translate(68.505859 0)"/>
     <use xlink:href="#DejaVuSerif-61" transform="translate(108.691406 0)"/>
     <use xlink:href="#DejaVuSerif-67" transform="translate(168.310547 0)"/>
     <use xlink:href="#DejaVuSerif-65" transform="translate(232.324219 0)"/>
     <use xlink:href="#DejaVuSerif-20" transform="translate(291.503906 0)"/>
     <use xlink:href="#DejaVuSerif-34" transform="translate(323.291016 0)"/>
    </g>
   </g>
   <g id="line2d_32">
    <path d="M 64.920732 173.821057 
L 104.246733 150.448009 
L 143.572734 100.647332 
L 182.898736 105.153232 
L 222.224737 99.447505 
L 261.550738 93.736538 
L 300.87674 88.434246 
L 340.202741 92.337613 
L 379.528742 93.375018 
L 418.854743 94.506733 
L 458.180745 95.124984 
L 497.506746 91.363081 
" clip-path="url(#p6eb3ae9085)" style="fill: none; stroke: #0072b2; stroke-width: 1.25; stroke-linecap: square"/>
    <defs>
     <path id="mdcd2da8a20" d="M 0 2.1 
C 0.556927 2.1 1.091118 1.878731 1.484924 1.484924 
C 1.878731 1.091118 2.1 0.556927 2.1 0 
C 2.1 -0.556927 1.878731 -1.091118 1.484924 -1.484924 
C 1.091118 -1.878731 0.556927 -2.1 0 -2.1 
C -0.556927 -2.1 -1.091118 -1.878731 -1.484924 -1.484924 
C -1.878731 -1.091118 -2.1 -0.556927 -2.1 0 
C -2.1 0.556927 -1.878731 1.091118 -1.484924 1.484924 
C -1.091118 1.878731 -0.556927 2.1 0 2.1 
z
" style="stroke: #0072b2"/>
    </defs>
    <g clip-path="url(#p6eb3ae9085)">
     <use xlink:href="#mdcd2da8a20" x="64.920732" y="173.821057" style="fill: #0072b2; stroke: #0072b2"/>
     <use xlink:href="#mdcd2da8a20" x="104.246733" y="150.448009" style="fill: #0072b2; stroke: #0072b2"/>
     <use xlink:href="#mdcd2da8a20" x="143.572734" y="100.647332" style="fill: #0072b2; stroke: #0072b2"/>
     <use xlink:href="#mdcd2da8a20" x="182.898736" y="105.153232" style="fill: #0072b2; stroke: #0072b2"/>
     <use xlink:href="#mdcd2da8a20" x="222.224737" y="99.447505" style="fill: #0072b2; stroke: #0072b2"/>
     <use xlink:href="#mdcd2da8a20" x="261.550738" y="93.736538" style="fill: #0072b2; stroke: #0072b2"/>
     <use xlink:href="#mdcd2da8a20" x="300.87674" y="88.434246" style="fill: #0072b2; stroke: #0072b2"/>
     <use xlink:href="#mdcd2da8a20" x="340.202741" y="92.337613" style="fill: #0072b2; stroke: #0072b2"/>
     <use xlink:href="#mdcd2da8a20" x="379.528742" y="93.375018" style="fill: #0072b2; stroke: #0072b2"/>
     <use xlink:href="#mdcd2da8a20" x="418.854743" y="94.506733" style="fill: #0072b2; stroke: #0072b2"/>
     <use xlink:href="#mdcd2da8a20" x="458.180745" y="95.124984" style="fill: #0072b2; stroke: #0072b2"/>
     <use xlink:href="#mdcd2da8a20" x="497.506746" y="91.363081" style="fill: #0072b2; stroke: #0072b2"/>
    </g>
   </g>
   <g id="line2d_33">
    <path d="M 64.920732 138.151093 
L 104.246733 139.036555 
L 143.572734 20.672841 
L 182.898736 22.742411 
L 222.224737 22.669059 
L 261.550738 21.966977 
L 300.87674 19.902646 
L 340.202741 21.678809 
L 379.528742 22.024611 
L 418.854743 23.271592 
L 458.180745 34.043838 
L 497.506746 36.469689 
" clip-path="url(#p6eb3ae9085)" style="fill: none; stroke: #d55e00; stroke-width: 1.25; stroke-linecap: square"/>
    <defs>
     <path id="m5057a36d48" d="M -2.1 2.1 
L 2.1 2.1 
L 2.1 -2.1 
L -2.1 -2.1 
z
" style="stroke: #d55e00; stroke-linejoin: miter"/>
    </defs>
    <g clip-path="url(#p6eb3ae9085)">
     <use xlink:href="#m5057a36d48" x="64.920732" y="138.151093" style="fill: #d55e00; stroke: #d55e00; stroke-linejoin: miter"/>
     <use xlink:href="#m5057a36d48" x="104.246733" y="139.036555" style="fill: #d55e00; stroke: #d55e00; stroke-linejoin: miter"/>
     <use xlink:href="#m5057a36d48" x="143.572734" y="20.672841" style="fill: #d55e00; stroke: #d55e00; stroke-linejoin: miter"/>
     <use xlink:href="#m5057a36d48" x="182.898736" y="22.742411" style="fill: #d55e00; stroke: #d55e00; stroke-linejoin: miter"/>
     <use xlink:href="#m5057a36d48" x="222.224737" y="22.669059" style="fill: #d55e00; stroke: #d55e00; stroke-linejoin: miter"/>
     <use xlink:href="#m5057a36d48" x="261.550738" y="21.966977" style="fill: #d55e00; stroke: #d55e00; stroke-linejoin: miter"/>
     <use xlink:href="#m5057a36d48" x="300.87674" y="19.902646" style="fill: #d55e00; stroke: #d55e00; stroke-linejoin: miter"/>
     <use xlink:href="#m5057a36d48" x="340.202741" y="21.678809" style="fill: #d55e00; stroke: #d55e00; stroke-linejoin: miter"/>
     <use xlink:href="#m5057a36d48" x="379.528742" y="22.024611" style="fill: #d55e00; stroke: #d55e00; stroke-linejoin: miter"/>
     <use xlink:href="#m5057a36d48" x="418.854743" y="23.271592" style="fill: #d55e00; stroke: #d55e00; stroke-linejoin: miter"/>
     <use xlink:href="#m5057a36d48" x="458.180745" y="34.043838" style="fill: #d55e00; stroke: #d55e00; stroke-linejoin: miter"/>
     <use xlink:href="#m5057a36d48" x="497.506746" y="36.469689" style="fill: #d55e00; stroke: #d55e00; stroke-linejoin: miter"/>
    </g>
   </g>
   <g id="legend_1">
    <g id="patch_9">
     <path d="M 489.887197 170.591252 
L 534.182197 170.591252 
Q 535.782197 170.591252 535.782197 168.991252 
L 535.782197 146.306252 
Q 535.782197 144.706252 534.182197 144.706252 
L 489.887197 144.706252 
Q 488.287197 144.706252 488.287197 146.306252 
L 488.287197 168.991252 
Q 488.287197 170.591252 489.887197 170.591252 
z
" style="fill: #ffffff; stroke: #777777; stroke-linejoin: miter"/>
    </g>
    <g id="LineCollection_3">
     <path d="M 499.487197 155.185002 
L 499.487197 147.185002 
" style="fill: none; stroke: #0072b2; stroke-width: 0.8"/>
    </g>
    <g id="line2d_34">
     <g>
      <use xlink:href="#m71558ec4a1" x="499.487197" y="155.185002" style="fill: #0072b2; stroke: #0072b2; stroke-width: 0.8"/>
     </g>
    </g>
    <g id="line2d_35">
     <g>
      <use xlink:href="#m71558ec4a1" x="499.487197" y="147.185002" style="fill: #0072b2; stroke: #0072b2; stroke-width: 0.8"/>
     </g>
    </g>
    <g id="line2d_36">
     <path d="M 491.487197 151.185002 
L 507.487197 151.185002 
" style="fill: none; stroke: #0072b2; stroke-width: 1.25; stroke-linecap: square"/>
    </g>
    <g id="line2d_37">
     <g>
      <use xlink:href="#mdcd2da8a20" x="499.487197" y="151.185002" style="fill: #0072b2; stroke: #0072b2"/>
     </g>
    </g>
    <g id="text_13">
     <!-- PW1 -->
     <g transform="translate(513.887197 153.985002) scale(0.08 -0.08)">
      <defs>
       <path id="DejaVuSerif-50" d="M 1581 2375 
L 2406 2375 
Q 2872 2375 3115 2626 
Q 3359 2878 3359 3353 
Q 3359 3831 3115 4081 
Q 2872 4331 2406 4331 
L 1581 4331 
L 1581 2375 
z
M 353 0 
L 353 331 
L 947 331 
L 947 4331 
L 353 4331 
L 353 4666 
L 2559 4666 
Q 3259 4666 3668 4311 
Q 4078 3956 4078 3353 
Q 4078 2753 3668 2397 
Q 3259 2041 2559 2041 
L 1581 2041 
L 1581 331 
L 2303 331 
L 2303 0 
L 353 0 
z
" transform="scale(0.015625)"/>
       <path id="DejaVuSerif-57" d="M 4878 0 
L 4366 0 
L 3297 3794 
L 2228 0 
L 1716 0 
L 494 4331 
L 31 4331 
L 31 4666 
L 1734 4666 
L 1734 4331 
L 1153 4331 
L 2125 884 
L 3188 4666 
L 3694 4666 
L 4775 844 
L 5753 4331 
L 5216 4331 
L 5216 4666 
L 6559 4666 
L 6559 4331 
L 6100 4331 
L 4878 0 
z
" transform="scale(0.015625)"/>
      </defs>
      <use xlink:href="#DejaVuSerif-50"/>
      <use xlink:href="#DejaVuSerif-57" transform="translate(67.285156 0)"/>
      <use xlink:href="#DejaVuSerif-31" transform="translate(170.068359 0)"/>
     </g>
    </g>
    <g id="LineCollection_4">
     <path d="M 499.487197 166.927502 
L 499.487197 158.927502 
" style="fill: none; stroke: #d55e00; stroke-width: 0.8"/>
    </g>
    <g id="line2d_38">
     <g>
      <use xlink:href="#mf86419a5f3" x="499.487197" y="166.927502" style="fill: #d55e00; stroke: #d55e00; stroke-width: 0.8"/>
     </g>
    </g>
    <g id="line2d_39">
     <g>
      <use xlink:href="#mf86419a5f3" x="499.487197" y="158.927502" style="fill: #d55e00; stroke: #d55e00; stroke-width: 0.8"/>
     </g>
    </g>
    <g id="line2d_40">
     <path d="M 491.487197 162.927502 
L 507.487197 162.927502 
" style="fill: none; stroke: #d55e00; stroke-width: 1.25; stroke-linecap: square"/>
    </g>
    <g id="line2d_41">
     <g>
      <use xlink:href="#m5057a36d48" x="499.487197" y="162.927502" style="fill: #d55e00; stroke: #d55e00; stroke-linejoin: miter"/>
     </g>
    </g>
    <g id="text_14">
     <!-- PW2 -->
     <g transform="translate(513.887197 165.727502) scale(0.08 -0.08)">
      <use xlink:href="#DejaVuSerif-50"/>
      <use xlink:href="#DejaVuSerif-57" transform="translate(67.285156 0)"/>
      <use xlink:href="#DejaVuSerif-32" transform="translate(170.068359 0)"/>
     </g>
    </g>
   </g>
  </g>
  <g id="axes_2">
   <g id="patch_10">
    <path d="M 42.308281 352.686028 
L 539.782197 352.686028 
L 539.782197 187.644331 
L 42.308281 187.644331 
z
" style="fill: #ffffff"/>
   </g>
   <g id="patch_11">
    <path d="M 123.909734 352.686028 
L 202.561736 352.686028 
L 202.561736 187.644331 
L 123.909734 187.644331 
z
" clip-path="url(#p478f8d192b)" style="fill: #f2f2f2; stroke: #f2f2f2; stroke-linejoin: miter"/>
   </g>
   <g id="patch_12">
    <path d="M 438.517744 352.686028 
L 517.169746 352.686028 
L 517.169746 187.644331 
L 438.517744 187.644331 
z
" clip-path="url(#p478f8d192b)" style="fill: #f2f2f2; stroke: #f2f2f2; stroke-linejoin: miter"/>
   </g>
   <g id="matplotlib.axis_3">
    <g id="xtick_13">
     <g id="line2d_42">
      <g>
       <use xlink:href="#m6da71f082b" x="64.920732" y="352.686028" style="stroke: #000000; stroke-width: 0.8"/>
      </g>
     </g>
     <g id="text_15">
      <!-- S1-B1 -->
      <g transform="translate(47.747152 379.786367) rotate(-45) scale(0.075 -0.075)">
       <defs>
        <path id="DejaVuSerif-2d" d="M 281 1959 
L 1881 1959 
L 1881 1472 
L 281 1472 
L 281 1959 
z
" transform="scale(0.015625)"/>
        <path id="DejaVuSerif-42" d="M 1581 331 
L 2516 331 
Q 3078 331 3337 575 
Q 3597 819 3597 1350 
Q 3597 1878 3339 2120 
Q 3081 2363 2516 2363 
L 1581 2363 
L 1581 331 
z
M 1581 2694 
L 2375 2694 
Q 2888 2694 3123 2891 
Q 3359 3088 3359 3513 
Q 3359 3941 3123 4136 
Q 2888 4331 2375 4331 
L 1581 4331 
L 1581 2694 
z
M 353 0 
L 353 331 
L 947 331 
L 947 4331 
L 353 4331 
L 353 4666 
L 2656 4666 
Q 3363 4666 3720 4377 
Q 4078 4088 4078 3513 
Q 4078 3097 3829 2850 
Q 3581 2603 3103 2547 
Q 3697 2472 4005 2167 
Q 4313 1863 4313 1350 
Q 4313 656 3875 328 
Q 3438 0 2509 0 
L 353 0 
z
" transform="scale(0.015625)"/>
       </defs>
       <use xlink:href="#DejaVuSerif-53"/>
       <use xlink:href="#DejaVuSerif-31" transform="translate(68.505859 0)"/>
       <use xlink:href="#DejaVuSerif-2d" transform="translate(132.128906 0)"/>
       <use xlink:href="#DejaVuSerif-42" transform="translate(165.917969 0)"/>
       <use xlink:href="#DejaVuSerif-31" transform="translate(239.404297 0)"/>
      </g>
     </g>
    </g>
    <g id="xtick_14">
     <g id="line2d_43">
      <g>
       <use xlink:href="#m6da71f082b" x="104.246733" y="352.686028" style="stroke: #000000; stroke-width: 0.8"/>
      </g>
     </g>
     <g id="text_16">
      <!-- S1-B2 -->
      <g transform="translate(87.073153 379.786367) rotate(-45) scale(0.075 -0.075)">
       <use xlink:href="#DejaVuSerif-53"/>
       <use xlink:href="#DejaVuSerif-31" transform="translate(68.505859 0)"/>
       <use xlink:href="#DejaVuSerif-2d" transform="translate(132.128906 0)"/>
       <use xlink:href="#DejaVuSerif-42" transform="translate(165.917969 0)"/>
       <use xlink:href="#DejaVuSerif-32" transform="translate(239.404297 0)"/>
      </g>
     </g>
    </g>
    <g id="xtick_15">
     <g id="line2d_44">
      <g>
       <use xlink:href="#m6da71f082b" x="143.572734" y="352.686028" style="stroke: #000000; stroke-width: 0.8"/>
      </g>
     </g>
     <g id="text_17">
      <!-- S2-B1 -->
      <g transform="translate(126.399155 379.786367) rotate(-45) scale(0.075 -0.075)">
       <use xlink:href="#DejaVuSerif-53"/>
       <use xlink:href="#DejaVuSerif-32" transform="translate(68.505859 0)"/>
       <use xlink:href="#DejaVuSerif-2d" transform="translate(132.128906 0)"/>
       <use xlink:href="#DejaVuSerif-42" transform="translate(165.917969 0)"/>
       <use xlink:href="#DejaVuSerif-31" transform="translate(239.404297 0)"/>
      </g>
     </g>
    </g>
    <g id="xtick_16">
     <g id="line2d_45">
      <g>
       <use xlink:href="#m6da71f082b" x="182.898736" y="352.686028" style="stroke: #000000; stroke-width: 0.8"/>
      </g>
     </g>
     <g id="text_18">
      <!-- S2-B2 -->
      <g transform="translate(165.725156 379.786367) rotate(-45) scale(0.075 -0.075)">
       <use xlink:href="#DejaVuSerif-53"/>
       <use xlink:href="#DejaVuSerif-32" transform="translate(68.505859 0)"/>
       <use xlink:href="#DejaVuSerif-2d" transform="translate(132.128906 0)"/>
       <use xlink:href="#DejaVuSerif-42" transform="translate(165.917969 0)"/>
       <use xlink:href="#DejaVuSerif-32" transform="translate(239.404297 0)"/>
      </g>
     </g>
    </g>
    <g id="xtick_17">
     <g id="line2d_46">
      <g>
       <use xlink:href="#m6da71f082b" x="222.224737" y="352.686028" style="stroke: #000000; stroke-width: 0.8"/>
      </g>
     </g>
     <g id="text_19">
      <!-- S3-B1 -->
      <g transform="translate(205.051157 379.786367) rotate(-45) scale(0.075 -0.075)">
       <use xlink:href="#DejaVuSerif-53"/>
       <use xlink:href="#DejaVuSerif-33" transform="translate(68.505859 0)"/>
       <use xlink:href="#DejaVuSerif-2d" transform="translate(132.128906 0)"/>
       <use xlink:href="#DejaVuSerif-42" transform="translate(165.917969 0)"/>
       <use xlink:href="#DejaVuSerif-31" transform="translate(239.404297 0)"/>
      </g>
     </g>
    </g>
    <g id="xtick_18">
     <g id="line2d_47">
      <g>
       <use xlink:href="#m6da71f082b" x="261.550738" y="352.686028" style="stroke: #000000; stroke-width: 0.8"/>
      </g>
     </g>
     <g id="text_20">
      <!-- S3-B2 -->
      <g transform="translate(244.377159 379.786367) rotate(-45) scale(0.075 -0.075)">
       <use xlink:href="#DejaVuSerif-53"/>
       <use xlink:href="#DejaVuSerif-33" transform="translate(68.505859 0)"/>
       <use xlink:href="#DejaVuSerif-2d" transform="translate(132.128906 0)"/>
       <use xlink:href="#DejaVuSerif-42" transform="translate(165.917969 0)"/>
       <use xlink:href="#DejaVuSerif-32" transform="translate(239.404297 0)"/>
      </g>
     </g>
    </g>
    <g id="xtick_19">
     <g id="line2d_48">
      <g>
       <use xlink:href="#m6da71f082b" x="300.87674" y="352.686028" style="stroke: #000000; stroke-width: 0.8"/>
      </g>
     </g>
     <g id="text_21">
      <!-- S3-B3 -->
      <g transform="translate(283.70316 379.786367) rotate(-45) scale(0.075 -0.075)">
       <use xlink:href="#DejaVuSerif-53"/>
       <use xlink:href="#DejaVuSerif-33" transform="translate(68.505859 0)"/>
       <use xlink:href="#DejaVuSerif-2d" transform="translate(132.128906 0)"/>
       <use xlink:href="#DejaVuSerif-42" transform="translate(165.917969 0)"/>
       <use xlink:href="#DejaVuSerif-33" transform="translate(239.404297 0)"/>
      </g>
     </g>
    </g>
    <g id="xtick_20">
     <g id="line2d_49">
      <g>
       <use xlink:href="#m6da71f082b" x="340.202741" y="352.686028" style="stroke: #000000; stroke-width: 0.8"/>
      </g>
     </g>
     <g id="text_22">
      <!-- S3-B4 -->
      <g transform="translate(323.029161 379.786367) rotate(-45) scale(0.075 -0.075)">
       <use xlink:href="#DejaVuSerif-53"/>
       <use xlink:href="#DejaVuSerif-33" transform="translate(68.505859 0)"/>
       <use xlink:href="#DejaVuSerif-2d" transform="translate(132.128906 0)"/>
       <use xlink:href="#DejaVuSerif-42" transform="translate(165.917969 0)"/>
       <use xlink:href="#DejaVuSerif-34" transform="translate(239.404297 0)"/>
      </g>
     </g>
    </g>
    <g id="xtick_21">
     <g id="line2d_50">
      <g>
       <use xlink:href="#m6da71f082b" x="379.528742" y="352.686028" style="stroke: #000000; stroke-width: 0.8"/>
      </g>
     </g>
     <g id="text_23">
      <!-- S3-B5 -->
      <g transform="translate(362.355162 379.786367) rotate(-45) scale(0.075 -0.075)">
       <defs>
        <path id="DejaVuSerif-35" d="M 3219 4666 
L 3219 4153 
L 1081 4153 
L 1081 2816 
Q 1244 2928 1461 2984 
Q 1678 3041 1947 3041 
Q 2703 3041 3140 2622 
Q 3578 2203 3578 1478 
Q 3578 738 3136 323 
Q 2694 -91 1894 -91 
Q 1572 -91 1234 -12 
Q 897 66 544 225 
L 544 1131 
L 897 1131 
Q 925 688 1179 453 
Q 1434 219 1894 219 
Q 2388 219 2653 544 
Q 2919 869 2919 1478 
Q 2919 2084 2655 2407 
Q 2391 2731 1894 2731 
Q 1613 2731 1398 2631 
Q 1184 2531 1019 2322 
L 750 2322 
L 750 4666 
L 3219 4666 
z
" transform="scale(0.015625)"/>
       </defs>
       <use xlink:href="#DejaVuSerif-53"/>
       <use xlink:href="#DejaVuSerif-33" transform="translate(68.505859 0)"/>
       <use xlink:href="#DejaVuSerif-2d" transform="translate(132.128906 0)"/>
       <use xlink:href="#DejaVuSerif-42" transform="translate(165.917969 0)"/>
       <use xlink:href="#DejaVuSerif-35" transform="translate(239.404297 0)"/>
      </g>
     </g>
    </g>
    <g id="xtick_22">
     <g id="line2d_51">
      <g>
       <use xlink:href="#m6da71f082b" x="418.854743" y="352.686028" style="stroke: #000000; stroke-width: 0.8"/>
      </g>
     </g>
     <g id="text_24">
      <!-- S3-B6 -->
      <g transform="translate(401.681164 379.786367) rotate(-45) scale(0.075 -0.075)">
       <use xlink:href="#DejaVuSerif-53"/>
       <use xlink:href="#DejaVuSerif-33" transform="translate(68.505859 0)"/>
       <use xlink:href="#DejaVuSerif-2d" transform="translate(132.128906 0)"/>
       <use xlink:href="#DejaVuSerif-42" transform="translate(165.917969 0)"/>
       <use xlink:href="#DejaVuSerif-36" transform="translate(239.404297 0)"/>
      </g>
     </g>
    </g>
    <g id="xtick_23">
     <g id="line2d_52">
      <g>
       <use xlink:href="#m6da71f082b" x="458.180745" y="352.686028" style="stroke: #000000; stroke-width: 0.8"/>
      </g>
     </g>
     <g id="text_25">
      <!-- S4-B1 -->
      <g transform="translate(441.007165 379.786367) rotate(-45) scale(0.075 -0.075)">
       <use xlink:href="#DejaVuSerif-53"/>
       <use xlink:href="#DejaVuSerif-34" transform="translate(68.505859 0)"/>
       <use xlink:href="#DejaVuSerif-2d" transform="translate(132.128906 0)"/>
       <use xlink:href="#DejaVuSerif-42" transform="translate(165.917969 0)"/>
       <use xlink:href="#DejaVuSerif-31" transform="translate(239.404297 0)"/>
      </g>
     </g>
    </g>
    <g id="xtick_24">
     <g id="line2d_53">
      <g>
       <use xlink:href="#m6da71f082b" x="497.506746" y="352.686028" style="stroke: #000000; stroke-width: 0.8"/>
      </g>
     </g>
     <g id="text_26">
      <!-- S4-B2 -->
      <g transform="translate(480.333166 379.786367) rotate(-45) scale(0.075 -0.075)">
       <use xlink:href="#DejaVuSerif-53"/>
       <use xlink:href="#DejaVuSerif-34" transform="translate(68.505859 0)"/>
       <use xlink:href="#DejaVuSerif-2d" transform="translate(132.128906 0)"/>
       <use xlink:href="#DejaVuSerif-42" transform="translate(165.917969 0)"/>
       <use xlink:href="#DejaVuSerif-32" transform="translate(239.404297 0)"/>
      </g>
     </g>
    </g>
    <g id="text_27">
     <!-- ConvNeXt block -->
     <g transform="translate(254.133286 391.727882) scale(0.09 -0.09)">
      <defs>
       <path id="DejaVuSerif-43" d="M 4513 1234 
Q 4306 581 3820 245 
Q 3334 -91 2591 -91 
Q 2134 -91 1743 65 
Q 1353 222 1050 525 
Q 700 875 529 1320 
Q 359 1766 359 2328 
Q 359 3416 987 4083 
Q 1616 4750 2644 4750 
Q 3025 4750 3456 4650 
Q 3888 4550 4384 4347 
L 4384 3272 
L 4031 3272 
Q 3916 3859 3567 4137 
Q 3219 4416 2591 4416 
Q 1844 4416 1459 3886 
Q 1075 3356 1075 2328 
Q 1075 1303 1459 773 
Q 1844 244 2591 244 
Q 3113 244 3450 492 
Q 3788 741 3938 1234 
L 4513 1234 
z
" transform="scale(0.015625)"/>
       <path id="DejaVuSerif-4e" d="M 313 0 
L 313 331 
L 941 331 
L 941 4331 
L 313 4331 
L 313 4666 
L 1509 4666 
L 4306 984 
L 4306 4331 
L 3681 4331 
L 3681 4666 
L 5319 4666 
L 5319 4331 
L 4691 4331 
L 4691 -91 
L 4313 -91 
L 1325 3841 
L 1325 331 
L 1953 331 
L 1953 0 
L 313 0 
z
" transform="scale(0.015625)"/>
       <path id="DejaVuSerif-58" d="M 2119 1997 
L 978 331 
L 1581 331 
L 1581 0 
L 38 0 
L 38 331 
L 575 331 
L 1919 2291 
L 556 4331 
L 56 4331 
L 56 4666 
L 1906 4666 
L 1906 4331 
L 1356 4331 
L 2356 2828 
L 3384 4331 
L 2784 4331 
L 2784 4666 
L 4313 4666 
L 4313 4331 
L 3788 4331 
L 2553 2534 
L 4025 331 
L 4525 331 
L 4525 0 
L 2675 0 
L 2675 331 
L 3231 331 
L 2119 1997 
z
" transform="scale(0.015625)"/>
       <path id="DejaVuSerif-62" d="M 738 331 
L 738 4531 
L 184 4531 
L 184 4863 
L 1313 4863 
L 1313 2803 
Q 1481 3116 1742 3264 
Q 2003 3413 2388 3413 
Q 3000 3413 3387 2928 
Q 3775 2444 3775 1663 
Q 3775 881 3387 395 
Q 3000 -91 2388 -91 
Q 2003 -91 1742 57 
Q 1481 206 1313 519 
L 1313 0 
L 184 0 
L 184 331 
L 738 331 
z
M 1313 1497 
Q 1313 897 1542 583 
Q 1772 269 2209 269 
Q 2650 269 2876 622 
Q 3103 975 3103 1663 
Q 3103 2353 2876 2703 
Q 2650 3053 2209 3053 
Q 1772 3053 1542 2737 
Q 1313 2422 1313 1825 
L 1313 1497 
z
" transform="scale(0.015625)"/>
       <path id="DejaVuSerif-6c" d="M 1313 331 
L 1856 331 
L 1856 0 
L 184 0 
L 184 331 
L 738 331 
L 738 4531 
L 184 4531 
L 184 4863 
L 1313 4863 
L 1313 331 
z
" transform="scale(0.015625)"/>
       <path id="DejaVuSerif-6b" d="M 1831 0 
L 219 0 
L 219 331 
L 738 331 
L 738 4531 
L 184 4531 
L 184 4863 
L 1313 4863 
L 1313 1697 
L 2713 2988 
L 2234 2988 
L 2234 3322 
L 3738 3322 
L 3738 2988 
L 3169 2988 
L 2181 2075 
L 3444 331 
L 3922 331 
L 3922 0 
L 2284 0 
L 2284 331 
L 2759 331 
L 1766 1697 
L 1313 1275 
L 1313 331 
L 1831 331 
L 1831 0 
z
" transform="scale(0.015625)"/>
      </defs>
      <use xlink:href="#DejaVuSerif-43"/>
      <use xlink:href="#DejaVuSerif-6f" transform="translate(76.513672 0)"/>
      <use xlink:href="#DejaVuSerif-6e" transform="translate(136.71875 0)"/>
      <use xlink:href="#DejaVuSerif-76" transform="translate(201.123047 0)"/>
      <use xlink:href="#DejaVuSerif-4e" transform="translate(257.617188 0)"/>
      <use xlink:href="#DejaVuSerif-65" transform="translate(345.117188 0)"/>
      <use xlink:href="#DejaVuSerif-58" transform="translate(404.296875 0)"/>
      <use xlink:href="#DejaVuSerif-74" transform="translate(475.488281 0)"/>
      <use xlink:href="#DejaVuSerif-20" transform="translate(515.673828 0)"/>
      <use xlink:href="#DejaVuSerif-62" transform="translate(547.460938 0)"/>
      <use xlink:href="#DejaVuSerif-6c" transform="translate(611.474609 0)"/>
      <use xlink:href="#DejaVuSerif-6f" transform="translate(643.457031 0)"/>
      <use xlink:href="#DejaVuSerif-63" transform="translate(703.662109 0)"/>
      <use xlink:href="#DejaVuSerif-6b" transform="translate(759.667969 0)"/>
     </g>
    </g>
   </g>
   <g id="matplotlib.axis_4">
    <g id="ytick_7">
     <g id="line2d_54">
      <path d="M 42.308281 352.686028 
L 539.782197 352.686028 
" clip-path="url(#p478f8d192b)" style="fill: none; stroke: #d0d0d0; stroke-opacity: 0.8; stroke-width: 0.55; stroke-linecap: square"/>
     </g>
     <g id="line2d_55">
      <g>
       <use xlink:href="#mccbb4c13a9" x="42.308281" y="352.686028" style="stroke: #000000; stroke-width: 0.8"/>
      </g>
     </g>
     <g id="text_28">
      <!-- 0 -->
      <g transform="translate(30.218281 355.725403) scale(0.08 -0.08)">
       <use xlink:href="#DejaVuSerif-30"/>
      </g>
     </g>
    </g>
    <g id="ytick_8">
     <g id="line2d_56">
      <path d="M 42.308281 321.249514 
L 539.782197 321.249514 
" clip-path="url(#p478f8d192b)" style="fill: none; stroke: #d0d0d0; stroke-opacity: 0.8; stroke-width: 0.55; stroke-linecap: square"/>
     </g>
     <g id="line2d_57">
      <g>
       <use xlink:href="#mccbb4c13a9" x="42.308281" y="321.249514" style="stroke: #000000; stroke-width: 0.8"/>
      </g>
     </g>
     <g id="text_29">
      <!-- 20 -->
      <g transform="translate(25.128281 324.288889) scale(0.08 -0.08)">
       <use xlink:href="#DejaVuSerif-32"/>
       <use xlink:href="#DejaVuSerif-30" transform="translate(63.623047 0)"/>
      </g>
     </g>
    </g>
    <g id="ytick_9">
     <g id="line2d_58">
      <path d="M 42.308281 289.813001 
L 539.782197 289.813001 
" clip-path="url(#p478f8d192b)" style="fill: none; stroke: #d0d0d0; stroke-opacity: 0.8; stroke-width: 0.55; stroke-linecap: square"/>
     </g>
     <g id="line2d_59">
      <g>
       <use xlink:href="#mccbb4c13a9" x="42.308281" y="289.813001" style="stroke: #000000; stroke-width: 0.8"/>
      </g>
     </g>
     <g id="text_30">
      <!-- 40 -->
      <g transform="translate(25.128281 292.852376) scale(0.08 -0.08)">
       <use xlink:href="#DejaVuSerif-34"/>
       <use xlink:href="#DejaVuSerif-30" transform="translate(63.623047 0)"/>
      </g>
     </g>
    </g>
    <g id="ytick_10">
     <g id="line2d_60">
      <path d="M 42.308281 258.376487 
L 539.782197 258.376487 
" clip-path="url(#p478f8d192b)" style="fill: none; stroke: #d0d0d0; stroke-opacity: 0.8; stroke-width: 0.55; stroke-linecap: square"/>
     </g>
     <g id="line2d_61">
      <g>
       <use xlink:href="#mccbb4c13a9" x="42.308281" y="258.376487" style="stroke: #000000; stroke-width: 0.8"/>
      </g>
     </g>
     <g id="text_31">
      <!-- 60 -->
      <g transform="translate(25.128281 261.415862) scale(0.08 -0.08)">
       <use xlink:href="#DejaVuSerif-36"/>
       <use xlink:href="#DejaVuSerif-30" transform="translate(63.623047 0)"/>
      </g>
     </g>
    </g>
    <g id="ytick_11">
     <g id="line2d_62">
      <path d="M 42.308281 226.939973 
L 539.782197 226.939973 
" clip-path="url(#p478f8d192b)" style="fill: none; stroke: #d0d0d0; stroke-opacity: 0.8; stroke-width: 0.55; stroke-linecap: square"/>
     </g>
     <g id="line2d_63">
      <g>
       <use xlink:href="#mccbb4c13a9" x="42.308281" y="226.939973" style="stroke: #000000; stroke-width: 0.8"/>
      </g>
     </g>
     <g id="text_32">
      <!-- 80 -->
      <g transform="translate(25.128281 229.979348) scale(0.08 -0.08)">
       <use xlink:href="#DejaVuSerif-38"/>
       <use xlink:href="#DejaVuSerif-30" transform="translate(63.623047 0)"/>
      </g>
     </g>
    </g>
    <g id="ytick_12">
     <g id="line2d_64">
      <path d="M 42.308281 195.503459 
L 539.782197 195.503459 
" clip-path="url(#p478f8d192b)" style="fill: none; stroke: #d0d0d0; stroke-opacity: 0.8; stroke-width: 0.55; stroke-linecap: square"/>
     </g>
     <g id="line2d_65">
      <g>
       <use xlink:href="#mccbb4c13a9" x="42.308281" y="195.503459" style="stroke: #000000; stroke-width: 0.8"/>
      </g>
     </g>
     <g id="text_33">
      <!-- 100 -->
      <g transform="translate(20.038281 198.542834) scale(0.08 -0.08)">
       <use xlink:href="#DejaVuSerif-31"/>
       <use xlink:href="#DejaVuSerif-30" transform="translate(63.623047 0)"/>
       <use xlink:href="#DejaVuSerif-30" transform="translate(127.246094 0)"/>
      </g>
     </g>
    </g>
    <g id="text_34">
     <!-- Activation sparsity (%) -->
     <g transform="translate(14.038594 322.034007) rotate(-90) scale(0.09 -0.09)">
      <use xlink:href="#DejaVuSerif-41"/>
      <use xlink:href="#DejaVuSerif-63" transform="translate(72.216797 0)"/>
      <use xlink:href="#DejaVuSerif-74" transform="translate(128.222656 0)"/>
      <use xlink:href="#DejaVuSerif-69" transform="translate(168.408203 0)"/>
      <use xlink:href="#DejaVuSerif-76" transform="translate(200.390625 0)"/>
      <use xlink:href="#DejaVuSerif-61" transform="translate(256.884766 0)"/>
      <use xlink:href="#DejaVuSerif-74" transform="translate(316.503906 0)"/>
      <use xlink:href="#DejaVuSerif-69" transform="translate(356.689453 0)"/>
      <use xlink:href="#DejaVuSerif-6f" transform="translate(388.671875 0)"/>
      <use xlink:href="#DejaVuSerif-6e" transform="translate(448.876953 0)"/>
      <use xlink:href="#DejaVuSerif-20" transform="translate(513.28125 0)"/>
      <use xlink:href="#DejaVuSerif-73" transform="translate(545.068359 0)"/>
      <use xlink:href="#DejaVuSerif-70" transform="translate(596.386719 0)"/>
      <use xlink:href="#DejaVuSerif-61" transform="translate(660.400391 0)"/>
      <use xlink:href="#DejaVuSerif-72" transform="translate(720.019531 0)"/>
      <use xlink:href="#DejaVuSerif-73" transform="translate(767.822266 0)"/>
      <use xlink:href="#DejaVuSerif-69" transform="translate(819.140625 0)"/>
      <use xlink:href="#DejaVuSerif-74" transform="translate(851.123047 0)"/>
      <use xlink:href="#DejaVuSerif-79" transform="translate(891.308594 0)"/>
      <use xlink:href="#DejaVuSerif-20" transform="translate(947.802734 0)"/>
      <use xlink:href="#DejaVuSerif-28" transform="translate(979.589844 0)"/>
      <use xlink:href="#DejaVuSerif-25" transform="translate(1018.603516 0)"/>
      <use xlink:href="#DejaVuSerif-29" transform="translate(1113.623047 0)"/>
     </g>
    </g>
   </g>
   <g id="line2d_66">
    <path d="M 123.909734 352.686028 
L 123.909734 187.644331 
" clip-path="url(#p478f8d192b)" style="fill: none; stroke-dasharray: 2.405,1.04; stroke-dashoffset: 0; stroke: #777777; stroke-width: 0.65"/>
   </g>
   <g id="line2d_67">
    <path d="M 202.561736 352.686028 
L 202.561736 187.644331 
" clip-path="url(#p478f8d192b)" style="fill: none; stroke-dasharray: 2.405,1.04; stroke-dashoffset: 0; stroke: #777777; stroke-width: 0.65"/>
   </g>
   <g id="line2d_68">
    <path d="M 438.517744 352.686028 
L 438.517744 187.644331 
" clip-path="url(#p478f8d192b)" style="fill: none; stroke-dasharray: 2.405,1.04; stroke-dashoffset: 0; stroke: #777777; stroke-width: 0.65"/>
   </g>
   <g id="patch_13">
    <path d="M 42.308281 352.686028 
L 42.308281 187.644331 
" style="fill: none; stroke: #000000; stroke-width: 0.7; stroke-linejoin: miter; stroke-linecap: square"/>
   </g>
   <g id="patch_14">
    <path d="M 539.782197 352.686028 
L 539.782197 187.644331 
" style="fill: none; stroke: #000000; stroke-width: 0.7; stroke-linejoin: miter; stroke-linecap: square"/>
   </g>
   <g id="patch_15">
    <path d="M 42.308281 352.686028 
L 539.782197 352.686028 
" style="fill: none; stroke: #000000; stroke-width: 0.7; stroke-linejoin: miter; stroke-linecap: square"/>
   </g>
   <g id="patch_16">
    <path d="M 42.308281 187.644331 
L 539.782197 187.644331 
" style="fill: none; stroke: #000000; stroke-width: 0.7; stroke-linejoin: miter; stroke-linecap: square"/>
   </g>
   <g id="LineCollection_5">
    <path d="M 64.920732 368.489033 
L 64.920732 290.524645 
" clip-path="url(#p478f8d192b)" style="fill: none; stroke: #0072b2; stroke-width: 0.8"/>
    <path d="M 104.246733 352.91605 
L 104.246733 343.22415 
" clip-path="url(#p478f8d192b)" style="fill: none; stroke: #0072b2; stroke-width: 0.8"/>
    <path d="M 143.572734 281.703536 
L 143.572734 279.018642 
" clip-path="url(#p478f8d192b)" style="fill: none; stroke: #0072b2; stroke-width: 0.8"/>
    <path d="M 182.898736 292.822762 
L 182.898736 283.062294 
" clip-path="url(#p478f8d192b)" style="fill: none; stroke: #0072b2; stroke-width: 0.8"/>
    <path d="M 222.224737 292.460603 
L 222.224737 280.626603 
" clip-path="url(#p478f8d192b)" style="fill: none; stroke: #0072b2; stroke-width: 0.8"/>
    <path d="M 261.550738 280.924512 
L 261.550738 277.261787 
" clip-path="url(#p478f8d192b)" style="fill: none; stroke: #0072b2; stroke-width: 0.8"/>
    <path d="M 300.87674 279.220935 
L 300.87674 276.796244 
" clip-path="url(#p478f8d192b)" style="fill: none; stroke: #0072b2; stroke-width: 0.8"/>
    <path d="M 340.202741 278.360792 
L 340.202741 275.476788 
" clip-path="url(#p478f8d192b)" style="fill: none; stroke: #0072b2; stroke-width: 0.8"/>
    <path d="M 379.528742 277.557617 
L 379.528742 273.178228 
" clip-path="url(#p478f8d192b)" style="fill: none; stroke: #0072b2; stroke-width: 0.8"/>
    <path d="M 418.854743 278.51404 
L 418.854743 273.646927 
" clip-path="url(#p478f8d192b)" style="fill: none; stroke: #0072b2; stroke-width: 0.8"/>
    <path d="M 458.180745 269.784068 
L 458.180745 267.874187 
" clip-path="url(#p478f8d192b)" style="fill: none; stroke: #0072b2; stroke-width: 0.8"/>
    <path d="M 497.506746 274.65919 
L 497.506746 268.510934 
" clip-path="url(#p478f8d192b)" style="fill: none; stroke: #0072b2; stroke-width: 0.8"/>
   </g>
   <g id="line2d_69">
    <g clip-path="url(#p478f8d192b)">
     <use xlink:href="#m71558ec4a1" x="64.920732" y="368.489033" style="fill: #0072b2; stroke: #0072b2; stroke-width: 0.8"/>
     <use xlink:href="#m71558ec4a1" x="104.246733" y="352.91605" style="fill: #0072b2; stroke: #0072b2; stroke-width: 0.8"/>
     <use xlink:href="#m71558ec4a1" x="143.572734" y="281.703536" style="fill: #0072b2; stroke: #0072b2; stroke-width: 0.8"/>
     <use xlink:href="#m71558ec4a1" x="182.898736" y="292.822762" style="fill: #0072b2; stroke: #0072b2; stroke-width: 0.8"/>
     <use xlink:href="#m71558ec4a1" x="222.224737" y="292.460603" style="fill: #0072b2; stroke: #0072b2; stroke-width: 0.8"/>
     <use xlink:href="#m71558ec4a1" x="261.550738" y="280.924512" style="fill: #0072b2; stroke: #0072b2; stroke-width: 0.8"/>
     <use xlink:href="#m71558ec4a1" x="300.87674" y="279.220935" style="fill: #0072b2; stroke: #0072b2; stroke-width: 0.8"/>
     <use xlink:href="#m71558ec4a1" x="340.202741" y="278.360792" style="fill: #0072b2; stroke: #0072b2; stroke-width: 0.8"/>
     <use xlink:href="#m71558ec4a1" x="379.528742" y="277.557617" style="fill: #0072b2; stroke: #0072b2; stroke-width: 0.8"/>
     <use xlink:href="#m71558ec4a1" x="418.854743" y="278.51404" style="fill: #0072b2; stroke: #0072b2; stroke-width: 0.8"/>
     <use xlink:href="#m71558ec4a1" x="458.180745" y="269.784068" style="fill: #0072b2; stroke: #0072b2; stroke-width: 0.8"/>
     <use xlink:href="#m71558ec4a1" x="497.506746" y="274.65919" style="fill: #0072b2; stroke: #0072b2; stroke-width: 0.8"/>
    </g>
   </g>
   <g id="line2d_70">
    <g clip-path="url(#p478f8d192b)">
     <use xlink:href="#m71558ec4a1" x="64.920732" y="290.524645" style="fill: #0072b2; stroke: #0072b2; stroke-width: 0.8"/>
     <use xlink:href="#m71558ec4a1" x="104.246733" y="343.22415" style="fill: #0072b2; stroke: #0072b2; stroke-width: 0.8"/>
     <use xlink:href="#m71558ec4a1" x="143.572734" y="279.018642" style="fill: #0072b2; stroke: #0072b2; stroke-width: 0.8"/>
     <use xlink:href="#m71558ec4a1" x="182.898736" y="283.062294" style="fill: #0072b2; stroke: #0072b2; stroke-width: 0.8"/>
     <use xlink:href="#m71558ec4a1" x="222.224737" y="280.626603" style="fill: #0072b2; stroke: #0072b2; stroke-width: 0.8"/>
     <use xlink:href="#m71558ec4a1" x="261.550738" y="277.261787" style="fill: #0072b2; stroke: #0072b2; stroke-width: 0.8"/>
     <use xlink:href="#m71558ec4a1" x="300.87674" y="276.796244" style="fill: #0072b2; stroke: #0072b2; stroke-width: 0.8"/>
     <use xlink:href="#m71558ec4a1" x="340.202741" y="275.476788" style="fill: #0072b2; stroke: #0072b2; stroke-width: 0.8"/>
     <use xlink:href="#m71558ec4a1" x="379.528742" y="273.178228" style="fill: #0072b2; stroke: #0072b2; stroke-width: 0.8"/>
     <use xlink:href="#m71558ec4a1" x="418.854743" y="273.646927" style="fill: #0072b2; stroke: #0072b2; stroke-width: 0.8"/>
     <use xlink:href="#m71558ec4a1" x="458.180745" y="267.874187" style="fill: #0072b2; stroke: #0072b2; stroke-width: 0.8"/>
     <use xlink:href="#m71558ec4a1" x="497.506746" y="268.510934" style="fill: #0072b2; stroke: #0072b2; stroke-width: 0.8"/>
    </g>
   </g>
   <g id="LineCollection_6">
    <path d="M 64.920732 334.587582 
L 64.920732 308.100066 
" clip-path="url(#p478f8d192b)" style="fill: none; stroke: #d55e00; stroke-width: 0.8"/>
    <path d="M 104.246733 316.239902 
L 104.246733 312.280357 
" clip-path="url(#p478f8d192b)" style="fill: none; stroke: #d55e00; stroke-width: 0.8"/>
    <path d="M 143.572734 201.29486 
L 143.572734 199.907967 
" clip-path="url(#p478f8d192b)" style="fill: none; stroke: #d55e00; stroke-width: 0.8"/>
    <path d="M 182.898736 209.494899 
L 182.898736 203.517579 
" clip-path="url(#p478f8d192b)" style="fill: none; stroke: #d55e00; stroke-width: 0.8"/>
    <path d="M 222.224737 206.897066 
L 222.224737 200.813119 
" clip-path="url(#p478f8d192b)" style="fill: none; stroke: #d55e00; stroke-width: 0.8"/>
    <path d="M 261.550738 201.094091 
L 261.550738 199.17612 
" clip-path="url(#p478f8d192b)" style="fill: none; stroke: #d55e00; stroke-width: 0.8"/>
    <path d="M 300.87674 202.521704 
L 300.87674 197.014988 
" clip-path="url(#p478f8d192b)" style="fill: none; stroke: #d55e00; stroke-width: 0.8"/>
    <path d="M 340.202741 198.167885 
L 340.202741 197.145836 
" clip-path="url(#p478f8d192b)" style="fill: none; stroke: #d55e00; stroke-width: 0.8"/>
    <path d="M 379.528742 204.72876 
L 379.528742 197.700092 
" clip-path="url(#p478f8d192b)" style="fill: none; stroke: #d55e00; stroke-width: 0.8"/>
    <path d="M 418.854743 200.048187 
L 418.854743 197.455611 
" clip-path="url(#p478f8d192b)" style="fill: none; stroke: #d55e00; stroke-width: 0.8"/>
    <path d="M 458.180745 219.947167 
L 458.180745 216.548387 
" clip-path="url(#p478f8d192b)" style="fill: none; stroke: #d55e00; stroke-width: 0.8"/>
    <path d="M 497.506746 234.123457 
L 497.506746 231.042197 
" clip-path="url(#p478f8d192b)" style="fill: none; stroke: #d55e00; stroke-width: 0.8"/>
   </g>
   <g id="line2d_71">
    <g clip-path="url(#p478f8d192b)">
     <use xlink:href="#mf86419a5f3" x="64.920732" y="334.587582" style="fill: #d55e00; stroke: #d55e00; stroke-width: 0.8"/>
     <use xlink:href="#mf86419a5f3" x="104.246733" y="316.239902" style="fill: #d55e00; stroke: #d55e00; stroke-width: 0.8"/>
     <use xlink:href="#mf86419a5f3" x="143.572734" y="201.29486" style="fill: #d55e00; stroke: #d55e00; stroke-width: 0.8"/>
     <use xlink:href="#mf86419a5f3" x="182.898736" y="209.494899" style="fill: #d55e00; stroke: #d55e00; stroke-width: 0.8"/>
     <use xlink:href="#mf86419a5f3" x="222.224737" y="206.897066" style="fill: #d55e00; stroke: #d55e00; stroke-width: 0.8"/>
     <use xlink:href="#mf86419a5f3" x="261.550738" y="201.094091" style="fill: #d55e00; stroke: #d55e00; stroke-width: 0.8"/>
     <use xlink:href="#mf86419a5f3" x="300.87674" y="202.521704" style="fill: #d55e00; stroke: #d55e00; stroke-width: 0.8"/>
     <use xlink:href="#mf86419a5f3" x="340.202741" y="198.167885" style="fill: #d55e00; stroke: #d55e00; stroke-width: 0.8"/>
     <use xlink:href="#mf86419a5f3" x="379.528742" y="204.72876" style="fill: #d55e00; stroke: #d55e00; stroke-width: 0.8"/>
     <use xlink:href="#mf86419a5f3" x="418.854743" y="200.048187" style="fill: #d55e00; stroke: #d55e00; stroke-width: 0.8"/>
     <use xlink:href="#mf86419a5f3" x="458.180745" y="219.947167" style="fill: #d55e00; stroke: #d55e00; stroke-width: 0.8"/>
     <use xlink:href="#mf86419a5f3" x="497.506746" y="234.123457" style="fill: #d55e00; stroke: #d55e00; stroke-width: 0.8"/>
    </g>
   </g>
   <g id="line2d_72">
    <g clip-path="url(#p478f8d192b)">
     <use xlink:href="#mf86419a5f3" x="64.920732" y="308.100066" style="fill: #d55e00; stroke: #d55e00; stroke-width: 0.8"/>
     <use xlink:href="#mf86419a5f3" x="104.246733" y="312.280357" style="fill: #d55e00; stroke: #d55e00; stroke-width: 0.8"/>
     <use xlink:href="#mf86419a5f3" x="143.572734" y="199.907967" style="fill: #d55e00; stroke: #d55e00; stroke-width: 0.8"/>
     <use xlink:href="#mf86419a5f3" x="182.898736" y="203.517579" style="fill: #d55e00; stroke: #d55e00; stroke-width: 0.8"/>
     <use xlink:href="#mf86419a5f3" x="222.224737" y="200.813119" style="fill: #d55e00; stroke: #d55e00; stroke-width: 0.8"/>
     <use xlink:href="#mf86419a5f3" x="261.550738" y="199.17612" style="fill: #d55e00; stroke: #d55e00; stroke-width: 0.8"/>
     <use xlink:href="#mf86419a5f3" x="300.87674" y="197.014988" style="fill: #d55e00; stroke: #d55e00; stroke-width: 0.8"/>
     <use xlink:href="#mf86419a5f3" x="340.202741" y="197.145836" style="fill: #d55e00; stroke: #d55e00; stroke-width: 0.8"/>
     <use xlink:href="#mf86419a5f3" x="379.528742" y="197.700092" style="fill: #d55e00; stroke: #d55e00; stroke-width: 0.8"/>
     <use xlink:href="#mf86419a5f3" x="418.854743" y="197.455611" style="fill: #d55e00; stroke: #d55e00; stroke-width: 0.8"/>
     <use xlink:href="#mf86419a5f3" x="458.180745" y="216.548387" style="fill: #d55e00; stroke: #d55e00; stroke-width: 0.8"/>
     <use xlink:href="#mf86419a5f3" x="497.506746" y="231.042197" style="fill: #d55e00; stroke: #d55e00; stroke-width: 0.8"/>
    </g>
   </g>
   <g id="text_35">
    <!-- (b) CIFAR-100 -->
    <g transform="translate(47.28302 204.005504) scale(0.085 -0.085)">
     <defs>
      <path id="DejaVuSerif-Bold-62" d="M 622 378 
L 622 4488 
L 147 4488 
L 147 4863 
L 1728 4863 
L 1728 2900 
Q 1869 3159 2106 3286 
Q 2344 3413 2694 3413 
Q 3403 3413 3811 2945 
Q 4219 2478 4219 1663 
Q 4219 847 3811 378 
Q 3403 -91 2694 -91 
Q 2344 -91 2106 36 
Q 1869 163 1728 422 
L 1728 0 
L 147 0 
L 147 378 
L 622 378 
z
M 1728 1497 
Q 1728 916 1876 656 
Q 2025 397 2356 397 
Q 2697 397 2836 672 
Q 2975 947 2975 1663 
Q 2975 2378 2836 2651 
Q 2697 2925 2356 2925 
Q 2025 2925 1876 2665 
Q 1728 2406 1728 1825 
L 1728 1497 
z
" transform="scale(0.015625)"/>
     </defs>
     <use xlink:href="#DejaVuSerif-Bold-28"/>
     <use xlink:href="#DejaVuSerif-Bold-62" transform="translate(47.314453 0)"/>
     <use xlink:href="#DejaVuSerif-Bold-29" transform="translate(117.236328 0)"/>
     <use xlink:href="#DejaVuSerif-Bold-20" transform="translate(164.550781 0)"/>
     <use xlink:href="#DejaVuSerif-Bold-43" transform="translate(199.365234 0)"/>
     <use xlink:href="#DejaVuSerif-Bold-49" transform="translate(278.955078 0)"/>
     <use xlink:href="#DejaVuSerif-Bold-46" transform="translate(325.732422 0)"/>
     <use xlink:href="#DejaVuSerif-Bold-41" transform="translate(390.853516 0)"/>
     <use xlink:href="#DejaVuSerif-Bold-52" transform="translate(468.441406 0)"/>
     <use xlink:href="#DejaVuSerif-Bold-2d" transform="translate(551.546875 0)"/>
     <use xlink:href="#DejaVuSerif-Bold-31" transform="translate(593.050781 0)"/>
     <use xlink:href="#DejaVuSerif-Bold-30" transform="translate(662.630859 0)"/>
     <use xlink:href="#DejaVuSerif-Bold-30" transform="translate(732.210938 0)"/>
    </g>
   </g>
   <g id="text_36">
    <!-- Stage 1 -->
    <g style="fill: #444444" transform="translate(70.461084 190.737839) scale(0.073 -0.073)">
     <use xlink:href="#DejaVuSerif-53"/>
     <use xlink:href="#DejaVuSerif-74" transform="translate(68.505859 0)"/>
     <use xlink:href="#DejaVuSerif-61" transform="translate(108.691406 0)"/>
     <use xlink:href="#DejaVuSerif-67" transform="translate(168.310547 0)"/>
     <use xlink:href="#DejaVuSerif-65" transform="translate(232.324219 0)"/>
     <use xlink:href="#DejaVuSerif-20" transform="translate(291.503906 0)"/>
     <use xlink:href="#DejaVuSerif-31" transform="translate(323.291016 0)"/>
    </g>
   </g>
   <g id="text_37">
    <!-- Stage 2 -->
    <g style="fill: #444444" transform="translate(149.113087 190.737839) scale(0.073 -0.073)">
     <use xlink:href="#DejaVuSerif-53"/>
     <use xlink:href="#DejaVuSerif-74" transform="translate(68.505859 0)"/>
     <use xlink:href="#DejaVuSerif-61" transform="translate(108.691406 0)"/>
     <use xlink:href="#DejaVuSerif-67" transform="translate(168.310547 0)"/>
     <use xlink:href="#DejaVuSerif-65" transform="translate(232.324219 0)"/>
     <use xlink:href="#DejaVuSerif-20" transform="translate(291.503906 0)"/>
     <use xlink:href="#DejaVuSerif-32" transform="translate(323.291016 0)"/>
    </g>
   </g>
   <g id="text_38">
    <!-- Stage 3 -->
    <g style="fill: #444444" transform="translate(306.417092 190.737839) scale(0.073 -0.073)">
     <use xlink:href="#DejaVuSerif-53"/>
     <use xlink:href="#DejaVuSerif-74" transform="translate(68.505859 0)"/>
     <use xlink:href="#DejaVuSerif-61" transform="translate(108.691406 0)"/>
     <use xlink:href="#DejaVuSerif-67" transform="translate(168.310547 0)"/>
     <use xlink:href="#DejaVuSerif-65" transform="translate(232.324219 0)"/>
     <use xlink:href="#DejaVuSerif-20" transform="translate(291.503906 0)"/>
     <use xlink:href="#DejaVuSerif-33" transform="translate(323.291016 0)"/>
    </g>
   </g>
   <g id="text_39">
    <!-- Stage 4 -->
    <g style="fill: #444444" transform="translate(463.721097 190.737839) scale(0.073 -0.073)">
     <use xlink:href="#DejaVuSerif-53"/>
     <use xlink:href="#DejaVuSerif-74" transform="translate(68.505859 0)"/>
     <use xlink:href="#DejaVuSerif-61" transform="translate(108.691406 0)"/>
     <use xlink:href="#DejaVuSerif-67" transform="translate(168.310547 0)"/>
     <use xlink:href="#DejaVuSerif-65" transform="translate(232.324219 0)"/>
     <use xlink:href="#DejaVuSerif-20" transform="translate(291.503906 0)"/>
     <use xlink:href="#DejaVuSerif-34" transform="translate(323.291016 0)"/>
    </g>
   </g>
   <g id="line2d_73">
    <path d="M 64.920732 329.506839 
L 104.246733 348.0701 
L 143.572734 280.361089 
L 182.898736 287.942528 
L 222.224737 286.543603 
L 261.550738 279.093149 
L 300.87674 278.00859 
L 340.202741 276.91879 
L 379.528742 275.367922 
L 418.854743 276.080483 
L 458.180745 268.829128 
L 497.506746 271.585062 
" clip-path="url(#p478f8d192b)" style="fill: none; stroke: #0072b2; stroke-width: 1.25; stroke-linecap: square"/>
    <g clip-path="url(#p478f8d192b)">
     <use xlink:href="#mdcd2da8a20" x="64.920732" y="329.506839" style="fill: #0072b2; stroke: #0072b2"/>
     <use xlink:href="#mdcd2da8a20" x="104.246733" y="348.0701" style="fill: #0072b2; stroke: #0072b2"/>
     <use xlink:href="#mdcd2da8a20" x="143.572734" y="280.361089" style="fill: #0072b2; stroke: #0072b2"/>
     <use xlink:href="#mdcd2da8a20" x="182.898736" y="287.942528" style="fill: #0072b2; stroke: #0072b2"/>
     <use xlink:href="#mdcd2da8a20" x="222.224737" y="286.543603" style="fill: #0072b2; stroke: #0072b2"/>
     <use xlink:href="#mdcd2da8a20" x="261.550738" y="279.093149" style="fill: #0072b2; stroke: #0072b2"/>
     <use xlink:href="#mdcd2da8a20" x="300.87674" y="278.00859" style="fill: #0072b2; stroke: #0072b2"/>
     <use xlink:href="#mdcd2da8a20" x="340.202741" y="276.91879" style="fill: #0072b2; stroke: #0072b2"/>
     <use xlink:href="#mdcd2da8a20" x="379.528742" y="275.367922" style="fill: #0072b2; stroke: #0072b2"/>
     <use xlink:href="#mdcd2da8a20" x="418.854743" y="276.080483" style="fill: #0072b2; stroke: #0072b2"/>
     <use xlink:href="#mdcd2da8a20" x="458.180745" y="268.829128" style="fill: #0072b2; stroke: #0072b2"/>
     <use xlink:href="#mdcd2da8a20" x="497.506746" y="271.585062" style="fill: #0072b2; stroke: #0072b2"/>
    </g>
   </g>
   <g id="line2d_74">
    <path d="M 64.920732 321.343824 
L 104.246733 314.260129 
L 143.572734 200.601414 
L 182.898736 206.506239 
L 222.224737 203.855093 
L 261.550738 200.135105 
L 300.87674 199.768346 
L 340.202741 197.65686 
L 379.528742 201.214426 
L 418.854743 198.751899 
L 458.180745 218.247777 
L 497.506746 232.582827 
" clip-path="url(#p478f8d192b)" style="fill: none; stroke: #d55e00; stroke-width: 1.25; stroke-linecap: square"/>
    <g clip-path="url(#p478f8d192b)">
     <use xlink:href="#m5057a36d48" x="64.920732" y="321.343824" style="fill: #d55e00; stroke: #d55e00; stroke-linejoin: miter"/>
     <use xlink:href="#m5057a36d48" x="104.246733" y="314.260129" style="fill: #d55e00; stroke: #d55e00; stroke-linejoin: miter"/>
     <use xlink:href="#m5057a36d48" x="143.572734" y="200.601414" style="fill: #d55e00; stroke: #d55e00; stroke-linejoin: miter"/>
     <use xlink:href="#m5057a36d48" x="182.898736" y="206.506239" style="fill: #d55e00; stroke: #d55e00; stroke-linejoin: miter"/>
     <use xlink:href="#m5057a36d48" x="222.224737" y="203.855093" style="fill: #d55e00; stroke: #d55e00; stroke-linejoin: miter"/>
     <use xlink:href="#m5057a36d48" x="261.550738" y="200.135105" style="fill: #d55e00; stroke: #d55e00; stroke-linejoin: miter"/>
     <use xlink:href="#m5057a36d48" x="300.87674" y="199.768346" style="fill: #d55e00; stroke: #d55e00; stroke-linejoin: miter"/>
     <use xlink:href="#m5057a36d48" x="340.202741" y="197.65686" style="fill: #d55e00; stroke: #d55e00; stroke-linejoin: miter"/>
     <use xlink:href="#m5057a36d48" x="379.528742" y="201.214426" style="fill: #d55e00; stroke: #d55e00; stroke-linejoin: miter"/>
     <use xlink:href="#m5057a36d48" x="418.854743" y="198.751899" style="fill: #d55e00; stroke: #d55e00; stroke-linejoin: miter"/>
     <use xlink:href="#m5057a36d48" x="458.180745" y="218.247777" style="fill: #d55e00; stroke: #d55e00; stroke-linejoin: miter"/>
     <use xlink:href="#m5057a36d48" x="497.506746" y="232.582827" style="fill: #d55e00; stroke: #d55e00; stroke-linejoin: miter"/>
    </g>
   </g>
  </g>
 </g>
 <defs>
  <clipPath id="p6eb3ae9085">
   <rect x="42.308281" y="9.549554" width="497.473916" height="165.041698"/>
  </clipPath>
  <clipPath id="p478f8d192b">
   <rect x="42.308281" y="187.644331" width="497.473916" height="165.041698"/>
  </clipPath>
 </defs>
</svg>
